<svg width="50" height="50" viewBox="0 0 50 50" fill="none" xmlns="http://www.w3.org/2000/svg">
<path d="M44.6626 39.8473C45.1985 39.1066 45.5156 38.1978 45.5156 37.2158V31.3477C45.5156 30.8083 45.0783 30.3711 44.5391 30.3711H40.1746C38.157 30.3711 36.5156 32.0125 36.5156 34.0301V37.2158C36.5156 38.1972 36.8323 39.1054 37.3676 39.8458C36.7 39.9541 36.0577 40.168 35.4587 40.4811C34.1019 38.4564 31.8789 37.0602 29.3244 36.8246C29.3145 36.8218 29.3043 36.8197 29.2942 36.8173C30.2082 35.7967 30.7653 34.4502 30.7653 32.9756V25C30.7653 24.4606 30.328 24.0234 29.7888 24.0234H23.8569C21.3082 24.0234 19.2347 26.097 19.2347 28.6457V32.9755C19.2347 34.4501 19.7918 35.7966 20.7058 36.8172C20.6957 36.8196 20.6855 36.8218 20.6756 36.8245C18.1208 37.0601 15.8978 38.4565 14.541 40.4814C13.9418 40.1685 13.2994 39.9544 12.6321 39.8461C13.1675 39.1057 13.4844 38.1973 13.4844 37.2158V31.3477C13.4844 30.8083 13.0471 30.3711 12.5078 30.3711H8.14336C6.12578 30.3711 4.48438 32.0125 4.48438 34.0301V37.2158C4.48438 38.1979 4.80146 39.1066 5.3374 39.8473C2.31465 40.3413 0 42.9701 0 46.1304V49.0234C0 49.5628 0.437305 50 0.976562 50H49.0234C49.5627 50 50 49.5628 50 49.0234V46.1304C50 42.9701 47.6854 40.3413 44.6626 39.8473ZM6.4375 34.0301C6.4375 33.0895 7.20273 32.3242 8.14336 32.3242H11.5312V33.5136C11.5312 34.0968 11.0568 34.5712 10.4737 34.5712H6.4375V34.0301ZM6.4375 36.5242H10.4737C10.8458 36.5242 11.2021 36.456 11.5312 36.3319V37.2158C11.5312 38.6201 10.3888 39.7627 8.98438 39.7627C7.57998 39.7627 6.4375 38.6201 6.4375 37.2158V36.5242ZM9.61397 41.7158L8.98438 42.3454L8.35478 41.7158H9.61397ZM13.1398 45.0914V48.0469H1.95312V46.1304C1.95312 43.94 3.55693 42.118 5.65166 41.7748L8.29385 44.417C8.47705 44.6001 8.72539 44.703 8.98438 44.703C9.24336 44.703 9.4917 44.6001 9.6749 44.417L12.3179 41.7739C12.7847 41.8499 13.2336 42.0004 13.652 42.2205C13.3211 43.1156 13.1398 44.0827 13.1398 45.0914ZM25.0001 36.7878C22.898 36.7878 21.1879 35.0776 21.1879 32.9756V31.6849H27.0242C27.6714 31.6849 28.2808 31.5195 28.8123 31.2291V32.9756C28.8123 35.0776 27.1021 36.7878 25.0001 36.7878ZM26.7023 38.7408L25 40.4432L23.2977 38.7408H26.7023ZM21.1877 28.6457H21.1878C21.1878 27.1739 22.3852 25.9766 23.8569 25.9766H28.8122V27.9438C28.8122 28.9297 28.0101 29.7318 27.0241 29.7318H21.1877V28.6457ZM34.9069 48.0469H33.0078H16.9922H15.0931V46.0938H21.4519C21.9911 46.0938 22.4284 45.6565 22.4284 45.1172C22.4284 44.5778 21.9911 44.1406 21.4519 44.1406H15.1645C15.583 41.3651 17.8047 39.1742 20.594 38.7993L24.3095 42.5147C24.5002 42.7055 24.7501 42.8008 25 42.8008C25.2499 42.8008 25.4998 42.7055 25.6905 42.5147L29.406 38.7993C32.5071 39.2161 34.9069 41.8779 34.9069 45.0914V48.0469ZM38.4688 34.0301C38.4688 33.0895 39.234 32.3242 40.1746 32.3242H43.5625V33.5136C43.5625 34.0968 43.0881 34.5712 42.505 34.5712H38.4688V34.0301ZM38.4688 36.5242H42.505C42.8771 36.5242 43.2333 36.456 43.5625 36.3319V37.2158C43.5625 38.6201 42.42 39.7627 41.0156 39.7627C39.6112 39.7627 38.4688 38.6201 38.4688 37.2158V36.5242ZM41.6452 41.7158L41.0156 42.3454L40.386 41.7158H41.6452ZM36.8601 48.0469V45.0914C36.8601 44.0826 36.6788 43.1155 36.3479 42.2203C36.766 42 37.2148 41.8496 37.6817 41.7737L40.325 44.417C40.5082 44.6001 40.7565 44.703 41.0155 44.703C41.2745 44.703 41.5229 44.6001 41.7061 44.417L44.3482 41.7748C46.443 42.1181 48.0468 43.94 48.0468 46.1304V48.0469H36.8601Z" fill="#3035C4"/>
<path d="M29.8129 6.38074C29.4315 5.99939 28.8133 5.99939 28.4318 6.38074L23.6398 11.1728L21.5682 9.10124C21.1867 8.7198 20.5686 8.7198 20.1871 9.10115C19.8058 9.48249 19.8058 10.1009 20.1871 10.4823L22.9492 13.2444C23.1324 13.4275 23.3808 13.5304 23.6398 13.5304C23.8987 13.5304 24.1471 13.4275 24.3303 13.2444L29.8129 7.76179C30.1943 7.38044 30.1943 6.76208 29.8129 6.38074Z" fill="#E6514A"/>
<path d="M28.993 0.847104C28.5005 0.627475 27.9231 0.848666 27.7034 1.34124C27.4836 1.83382 27.7049 2.41126 28.1975 2.63089C31.0294 3.89388 32.8593 6.71292 32.8593 9.81273C32.8593 14.1463 29.3336 17.672 25 17.672C20.6664 17.672 17.1408 14.1463 17.1408 9.81273C17.1408 6.72894 18.9575 3.91576 21.769 2.64593C22.2605 2.42396 22.479 1.84544 22.257 1.35394C22.035 0.862338 21.4562 0.643881 20.9651 0.865854C17.4555 2.45101 15.1877 5.96283 15.1877 9.81263C15.1876 15.2233 19.5895 19.6251 25 19.6251C30.4106 19.6251 34.8125 15.2233 34.8125 9.81273C34.8125 5.9429 32.5282 2.42367 28.993 0.847104Z" fill="#E6514A"/>
<path d="M25.035 0H25C24.4607 0 24.0234 0.437207 24.0234 0.976562C24.0234 1.51592 24.4607 1.95312 25 1.95312H25.0258C25.0273 1.95312 25.0288 1.95312 25.0305 1.95312C25.5677 1.95312 26.0044 1.51895 26.0069 0.981152C26.0095 0.441797 25.5743 0.00253906 25.035 0Z" fill="#3035C4"/>
<path d="M25.6903 44.4268C25.5088 44.2451 25.2568 44.1406 25 44.1406C24.7432 44.1406 24.4912 44.2451 24.3096 44.4268C24.1279 44.6084 24.0234 44.8604 24.0234 45.1172C24.0234 45.374 24.1278 45.626 24.3096 45.8076C24.4913 45.9893 24.7432 46.0938 25 46.0938C25.2568 46.0938 25.5088 45.9893 25.6903 45.8076C25.872 45.626 25.9766 45.374 25.9766 45.1172C25.9766 44.8604 25.8721 44.6084 25.6903 44.4268Z" fill="#3035C4"/>
</svg>
