<svg width="50" height="50" viewBox="0 0 50 50" fill="none" xmlns="http://www.w3.org/2000/svg">
<g clip-path="url(#clip0_2123_2)">
<path d="M27.3418 8.26963H21.5455V1.46484H22.7663C23.1708 1.46484 23.4988 1.13691 23.4988 0.732422C23.4988 0.32793 23.1708 0 22.7663 0H7.99756C7.59307 0 7.26504 0.32793 7.26504 0.732422C7.26504 1.13691 7.59297 1.46484 7.99756 1.46484H9.21836V8.26963H3.42207C1.53506 8.26963 0 9.80459 0 11.6914V43.4221C0 45.1418 1.27529 46.5692 2.92988 46.8085V47.8027C2.92988 49.0144 3.91563 50 5.12734 50C6.33906 50 7.3248 49.0144 7.3248 47.8027V46.8438H23.4392V47.8027C23.4392 49.0144 24.4249 50 25.6366 50C26.8482 50 27.8341 49.0144 27.8341 47.8027V46.8085C29.4887 46.5691 30.764 45.1418 30.764 43.4221V17.2671C30.764 16.8626 30.436 16.5347 30.0314 16.5347C29.6269 16.5347 29.2989 16.8626 29.2989 17.2671V43.4221C29.2989 44.5012 28.421 45.379 27.3419 45.379H3.42207C2.34297 45.379 1.46504 44.5012 1.46504 43.4221V11.6914C1.46504 10.6123 2.34297 9.73447 3.42207 9.73447H27.3418C28.421 9.73447 29.2988 10.6123 29.2988 11.6914V13.8384C29.2988 14.2429 29.6268 14.5708 30.0313 14.5708C30.4359 14.5708 30.7639 14.2429 30.7639 13.8384V11.6914C30.7638 9.80459 29.2287 8.26963 27.3418 8.26963ZM26.3689 46.8438V47.8027C26.3689 48.2066 26.0403 48.5352 25.6364 48.5352C25.2325 48.5352 24.9039 48.2066 24.9039 47.8027V46.8438H26.3689ZM5.85977 46.8438V47.8027C5.85977 48.2066 5.53115 48.5352 5.12725 48.5352C4.72334 48.5352 4.39482 48.2066 4.39482 47.8027V46.8438H5.85977ZM10.6833 1.46484H20.0806V8.26963H10.6833V1.46484Z" fill="#3035C4"/>
<path fill-rule="evenodd" clip-rule="evenodd" d="M7.01504 0.732422C7.01504 0.189815 7.45504 -0.25 7.99756 -0.25H22.7663C23.3088 -0.25 23.7488 0.189815 23.7488 0.732422C23.7488 1.27503 23.3088 1.71484 22.7663 1.71484H21.7955V8.01963H27.3418C29.3668 8.01963 31.0138 9.6665 31.0139 11.6914V13.8384C31.0139 14.381 30.574 14.8208 30.0313 14.8208C29.4887 14.8208 29.0488 14.381 29.0488 13.8384V11.6914C29.0488 10.7504 28.2829 9.98447 27.3418 9.98447H3.42207C2.48102 9.98447 1.71504 10.7504 1.71504 11.6914V43.4221C1.71504 44.3631 2.48102 45.129 3.42207 45.129H27.3419C28.2829 45.129 29.0489 44.3631 29.0489 43.4221V17.2671C29.0489 16.7245 29.4888 16.2847 30.0314 16.2847C30.5741 16.2847 31.014 16.7245 31.014 17.2671V43.4221C31.014 45.1931 29.7544 46.6742 28.0841 47.0184V47.8027C28.0841 49.1525 26.9863 50.25 25.6366 50.25C24.2869 50.25 23.1892 49.1524 23.1892 47.8027V47.0938H7.5748V47.8027C7.5748 49.1524 6.47711 50.25 5.12734 50.25C3.77758 50.25 2.67988 49.1524 2.67988 47.8027V47.0184C1.0096 46.6743 -0.25 45.193 -0.25 43.4221V11.6914C-0.25 9.6665 1.39701 8.01963 3.42207 8.01963H8.96836V1.71484H7.99756C7.45492 1.71484 7.01504 1.27501 7.01504 0.732422ZM7.99756 0.25C7.73109 0.25 7.51504 0.466044 7.51504 0.732422C7.51504 0.998821 7.73102 1.21484 7.99756 1.21484H9.46836V8.51963H3.42207C1.67311 8.51963 0.25 9.94268 0.25 11.6914V43.4221C0.25 45.0156 1.43211 46.3393 2.96566 46.5611L3.17988 46.592V47.8027C3.17988 48.8763 4.05367 49.75 5.12734 49.75C6.20101 49.75 7.0748 48.8763 7.0748 47.8027V46.5938H23.6892V47.8027C23.6892 48.8763 24.563 49.75 25.6366 49.75C26.7102 49.75 27.5841 48.8763 27.5841 47.8027V46.5921L27.7983 46.5611C29.3319 46.3392 30.514 45.0156 30.514 43.4221V17.2671C30.514 17.0007 30.298 16.7847 30.0314 16.7847C29.7649 16.7847 29.5489 17.0007 29.5489 17.2671V43.4221C29.5489 44.6393 28.559 45.629 27.3419 45.629H3.42207C2.20491 45.629 1.21504 44.6393 1.21504 43.4221V11.6914C1.21504 10.4742 2.20491 9.48447 3.42207 9.48447H27.3418C28.5591 9.48447 29.5488 10.4742 29.5488 11.6914V13.8384C29.5488 14.1048 29.7648 14.3208 30.0313 14.3208C30.2979 14.3208 30.5139 14.1048 30.5139 13.8384V11.6914C30.5138 9.94268 29.0907 8.51963 27.3418 8.51963H21.2955V1.21484H22.7663C23.0328 1.21484 23.2488 0.998799 23.2488 0.732422C23.2488 0.466045 23.0328 0.25 22.7663 0.25H7.99756ZM10.4333 1.21484H20.3306V8.51963H10.4333V1.21484ZM10.9333 1.71484V8.01963H19.8306V1.71484H10.9333ZM4.14482 46.5938H6.10977V47.8027C6.10977 48.3448 5.66918 48.7852 5.12725 48.7852C4.58527 48.7852 4.14482 48.3447 4.14482 47.8027V46.5938ZM4.64482 47.0938V47.8027C4.64482 48.0686 4.86141 48.2852 5.12725 48.2852C5.39312 48.2852 5.60977 48.0685 5.60977 47.8027V47.0938H4.64482ZM24.6539 46.5938H26.6189V47.8027C26.6189 48.3448 26.1784 48.7852 25.6364 48.7852C25.0945 48.7852 24.6539 48.3448 24.6539 47.8027V46.5938ZM25.1539 47.0938V47.8027C25.1539 48.0685 25.3705 48.2852 25.6364 48.2852C25.9023 48.2852 26.1189 48.0685 26.1189 47.8027V47.0938H25.1539Z" fill="#3035C4"/>
<path d="M9.93944 43.9141H27.1015C27.506 43.9141 27.834 43.5861 27.834 43.1816V26.873C27.834 26.4686 27.506 26.1406 27.1015 26.1406H3.66239C3.2579 26.1406 2.92987 26.4686 2.92987 26.873V43.1816C2.92987 43.5861 3.2578 43.9141 3.66239 43.9141H6.59227C6.99676 43.9141 7.32479 43.5861 7.32479 43.1816C7.32479 42.7772 6.99686 42.4492 6.59227 42.4492H4.39481V27.6055H26.3689V42.4492H9.93944C9.53495 42.4492 9.20692 42.7772 9.20692 43.1816C9.20692 43.5861 9.53495 43.9141 9.93944 43.9141Z" fill="#3035C4"/>
<path fill-rule="evenodd" clip-rule="evenodd" d="M2.67987 26.873C2.67987 26.3304 3.11987 25.8906 3.66239 25.8906H27.1015C27.6441 25.8906 28.084 26.3305 28.084 26.873V43.1816C28.084 43.7242 27.6441 44.1641 27.1015 44.1641H9.93944C9.39692 44.1641 8.95692 43.7243 8.95692 43.1816C8.95692 42.639 9.39692 42.1992 9.93944 42.1992H26.1189V27.8555H4.64481V42.1992H6.59227C7.13491 42.1992 7.57479 42.6391 7.57479 43.1816C7.57479 43.7243 7.13479 44.1641 6.59227 44.1641H3.66239C3.11975 44.1641 2.67987 43.7242 2.67987 43.1816V26.873ZM3.66239 26.3906C3.39593 26.3906 3.17987 26.6067 3.17987 26.873V43.1816C3.17987 43.448 3.39585 43.6641 3.66239 43.6641H6.59227C6.85874 43.6641 7.07479 43.448 7.07479 43.1816C7.07479 42.9152 6.85881 42.6992 6.59227 42.6992H4.14481V27.3555H26.6189V42.6992H9.93944C9.67298 42.6992 9.45692 42.9153 9.45692 43.1816C9.45692 43.448 9.67298 43.6641 9.93944 43.6641H27.1015C27.368 43.6641 27.584 43.448 27.584 43.1816V26.873C27.584 26.6066 27.368 26.3906 27.1015 26.3906H3.66239Z" fill="#3035C4"/>
<path d="M21.8277 33.6109C22.2322 33.6109 22.5602 33.283 22.5602 32.8785V30.4995H24.1717C24.5762 30.4995 24.9042 30.1716 24.9042 29.7671C24.9042 29.3626 24.5762 29.0347 24.1717 29.0347H6.59226C6.18777 29.0347 5.85974 29.3626 5.85974 29.7671C5.85974 30.1716 6.18767 30.4995 6.59226 30.4995H21.0952V32.8785C21.0952 33.283 21.4231 33.6109 21.8277 33.6109Z" fill="#E6514A"/>
<path fill-rule="evenodd" clip-rule="evenodd" d="M5.60974 29.7671C5.60974 29.2245 6.04974 28.7847 6.59226 28.7847H24.1717C24.7143 28.7847 25.1542 29.2245 25.1542 29.7671C25.1542 30.3097 24.7143 30.7495 24.1717 30.7495H22.8102V32.8785C22.8102 33.4211 22.3702 33.8609 21.8277 33.8609C21.2851 33.8609 20.8452 33.4211 20.8452 32.8785V30.7495H6.59226C6.04962 30.7495 5.60974 30.3097 5.60974 29.7671ZM6.59226 29.2847C6.3258 29.2847 6.10974 29.5007 6.10974 29.7671C6.10974 30.0335 6.32572 30.2495 6.59226 30.2495H21.3452V32.8785C21.3452 33.1449 21.5612 33.3609 21.8277 33.3609C22.0942 33.3609 22.3102 33.1449 22.3102 32.8785V30.2495H24.1717C24.4382 30.2495 24.6542 30.0335 24.6542 29.7671C24.6542 29.5007 24.4382 29.2847 24.1717 29.2847H6.59226Z" fill="#E6514A"/>
<path d="M20.265 19.9814C20.6695 19.9814 20.9976 19.6535 20.9976 19.249V16.3193C20.9976 15.9148 20.6696 15.5869 20.265 15.5869H10.4987C10.0942 15.5869 9.7662 15.9148 9.7662 16.3193V19.249C9.7662 19.6535 10.0941 19.9814 10.4987 19.9814H20.265ZM11.2312 17.0518H19.5326V18.5166H11.2312V17.0518Z" fill="#E6514A"/>
<path fill-rule="evenodd" clip-rule="evenodd" d="M9.5162 16.3193C9.5162 15.7767 9.95621 15.3369 10.4987 15.3369H20.265C20.8077 15.3369 21.2476 15.7768 21.2476 16.3193V19.249C21.2476 19.7916 20.8076 20.2314 20.265 20.2314H10.4987C9.95609 20.2314 9.5162 19.7916 9.5162 19.249V16.3193ZM10.4987 15.8369C10.2323 15.8369 10.0162 16.053 10.0162 16.3193V19.249C10.0162 19.5154 10.2322 19.7314 10.4987 19.7314H20.265C20.5315 19.7314 20.7476 19.5154 20.7476 19.249V16.3193C20.7476 16.0529 20.5316 15.8369 20.265 15.8369H10.4987ZM10.9812 16.8018H19.7826V18.7666H10.9812V16.8018ZM11.4812 17.3018V18.2666H19.2826V17.3018H11.4812Z" fill="#E6514A"/>
<path d="M46.5779 22.8872H40.756V20.1008C40.756 18.8161 39.7108 17.771 38.4261 17.771H32.9129C32.5083 17.771 32.1804 18.0989 32.1804 18.5034C32.1804 18.9079 32.5083 19.2358 32.9129 19.2358H38.4261C38.903 19.2358 39.2911 19.6239 39.2911 20.1008V22.8872H32.9129C32.5083 22.8872 32.1804 23.2151 32.1804 23.6196C32.1804 24.0241 32.5083 24.352 32.9129 24.352H39.2911V25.8163L37.7429 27.3934C37.6085 27.5303 37.5331 27.7145 37.5331 27.9064V32.3986C37.5331 32.8031 37.861 33.1311 38.2656 33.1311H41.7815C42.1861 33.1311 42.5141 32.8031 42.5141 32.3986V27.9064C42.5141 27.7145 42.4387 27.5303 42.3043 27.3934L40.756 25.8163V24.352H46.5779C47.6571 24.352 48.5351 25.2299 48.5351 26.309V37.8514H46.0432C45.6386 37.8514 45.3106 38.1793 45.3106 38.5838C45.3106 38.9883 45.6386 39.3162 46.0432 39.3162H48.5351V41.2463H32.9128C32.5082 41.2463 32.1803 41.5742 32.1803 41.9787C32.1803 42.3832 32.5082 42.7111 32.9128 42.7111H48.5351V43.4221C48.5351 44.5012 47.657 45.379 46.5779 45.379H32.9128C32.5082 45.379 32.1803 45.7069 32.1803 46.1114C32.1803 46.5159 32.5082 46.8438 32.9128 46.8438H42.9155V47.8027C42.9155 49.0144 43.9013 50 45.113 50C46.3247 50 47.3104 49.0144 47.3104 47.8027V46.7649C48.8466 46.4286 50 45.0574 50 43.422V26.309C50 24.4222 48.4648 22.8872 46.5779 22.8872ZM41.0489 31.6662H38.998V28.2059L40.0235 27.1613L41.049 28.2059V31.6662H41.0489ZM45.8454 47.8026C45.8454 48.2065 45.5168 48.5351 45.1129 48.5351C44.709 48.5351 44.3804 48.2065 44.3804 47.8026V46.8437H45.8453V47.8026H45.8454Z" fill="#3035C4"/>
<path fill-rule="evenodd" clip-rule="evenodd" d="M31.9304 18.5034C31.9304 17.9608 32.3702 17.521 32.9129 17.521H38.4261C39.8489 17.521 41.006 18.678 41.006 20.1008V22.6372H46.5779C48.6029 22.6372 50.25 24.2841 50.25 26.309V43.422C50.25 45.1071 49.1096 46.5297 47.5604 46.9604V47.8027C47.5604 49.1524 46.4627 50.25 45.113 50.25C43.7632 50.25 42.6655 49.1524 42.6655 47.8027V47.0938H32.9128C32.3701 47.0938 31.9303 46.654 31.9303 46.1114C31.9303 45.5688 32.3701 45.129 32.9128 45.129H46.5779C47.519 45.129 48.2851 44.3631 48.2851 43.4221V42.9611H32.9128C32.3701 42.9611 31.9303 42.5213 31.9303 41.9787C31.9303 41.4361 32.3701 40.9963 32.9128 40.9963H48.2851V39.5662H46.0432C45.5005 39.5662 45.0606 39.1264 45.0606 38.5838C45.0606 38.0412 45.5005 37.6014 46.0432 37.6014H48.2851V26.309C48.2851 25.368 47.5191 24.602 46.5779 24.602H41.006V25.7141L42.4827 27.2182C42.6629 27.4018 42.7641 27.649 42.7641 27.9064V32.3986C42.7641 32.9412 42.3242 33.3811 41.7815 33.3811H38.2656C37.723 33.3811 37.2831 32.9412 37.2831 32.3986V27.9064C37.2831 27.649 37.3842 27.4019 37.5644 27.2182L39.0411 25.7141V24.602H32.9129C32.3702 24.602 31.9304 24.1622 31.9304 23.6196C31.9304 23.077 32.3702 22.6372 32.9129 22.6372H39.0411V20.1008C39.0411 19.762 38.765 19.4858 38.4261 19.4858H32.9129C32.3702 19.4858 31.9304 19.046 31.9304 18.5034ZM32.9129 18.021C32.6463 18.021 32.4304 18.237 32.4304 18.5034C32.4304 18.7698 32.6463 18.9858 32.9129 18.9858H38.4261C39.0411 18.9858 39.5411 19.4858 39.5411 20.1008V23.1372H32.9129C32.6463 23.1372 32.4304 23.3532 32.4304 23.6196C32.4304 23.886 32.6463 24.102 32.9129 24.102H39.5411V25.9185L37.9213 27.5685C37.8328 27.6587 37.7831 27.7801 37.7831 27.9064V32.3986C37.7831 32.665 37.9991 32.8811 38.2656 32.8811H41.7815C42.0481 32.8811 42.2641 32.665 42.2641 32.3986V27.9064C42.2641 27.7801 42.2144 27.6587 42.1259 27.5685L40.506 25.9185V24.102H46.5779C47.7952 24.102 48.7851 25.0918 48.7851 26.309V38.1014H46.0432C45.7766 38.1014 45.5606 38.3174 45.5606 38.5838C45.5606 38.8502 45.7766 39.0662 46.0432 39.0662H48.7851V41.4963H32.9128C32.6462 41.4963 32.4303 41.7123 32.4303 41.9787C32.4303 42.2451 32.6462 42.4611 32.9128 42.4611H48.7851V43.4221C48.7851 44.6393 47.7951 45.629 46.5779 45.629H32.9128C32.6462 45.629 32.4303 45.845 32.4303 46.1114C32.4303 46.3778 32.6462 46.5938 32.9128 46.5938H43.1655V47.8027C43.1655 48.8763 44.0393 49.75 45.113 49.75C46.1867 49.75 47.0604 48.8763 47.0604 47.8027V46.5638L47.257 46.5207C48.681 46.2089 49.75 44.9373 49.75 43.422V26.309C49.75 24.5603 48.3268 23.1372 46.5779 23.1372H40.506V20.1008C40.506 18.9542 39.5728 18.021 38.4261 18.021H32.9129ZM40.0235 26.8045L41.299 28.1037V31.9162H38.748V28.1037L40.0235 26.8045ZM39.248 28.3081V31.4162H40.799V28.3081L40.0235 27.5182L39.248 28.3081ZM44.1304 46.5937H46.0953V47.5526L46.0954 47.8026C46.0954 48.3447 45.6548 48.7851 45.1129 48.7851C44.5709 48.7851 44.1304 48.3447 44.1304 47.8026V46.5937ZM45.5953 47.8124V47.0937H44.6304V47.8026C44.6304 48.0684 44.847 48.2851 45.1129 48.2851C45.3755 48.2851 45.5901 48.0737 45.5953 47.8124Z" fill="#3035C4"/>
<path d="M32.9128 39.3164H42.6583C43.0629 39.3164 43.3908 38.9885 43.3908 38.584C43.3908 38.1795 43.0629 37.8516 42.6583 37.8516H32.9128C32.5082 37.8516 32.1803 38.1795 32.1803 38.584C32.1803 38.9885 32.5082 39.3164 32.9128 39.3164Z" fill="#3035C4"/>
<path fill-rule="evenodd" clip-rule="evenodd" d="M31.9303 38.584C31.9303 38.0414 32.3701 37.6016 32.9128 37.6016H42.6583C43.2009 37.6016 43.6408 38.0414 43.6408 38.584C43.6408 39.1266 43.2009 39.5664 42.6583 39.5664H32.9128C32.3701 39.5664 31.9303 39.1266 31.9303 38.584ZM32.9128 38.1016C32.6462 38.1016 32.4303 38.3176 32.4303 38.584C32.4303 38.8504 32.6462 39.0664 32.9128 39.0664H42.6583C42.9248 39.0664 43.1408 38.8504 43.1408 38.584C43.1408 38.3176 42.9248 38.1016 42.6583 38.1016H32.9128Z" fill="#3035C4"/>
</g>
<defs>
<clipPath id="clip0_2123_2">
<rect width="50" height="50" fill="white"/>
</clipPath>
</defs>
</svg>
