<svg width="50" height="50" viewBox="0 0 50 50" fill="none" xmlns="http://www.w3.org/2000/svg">
<g clip-path="url(#clip0_2123_24)">
<path d="M32.0296 4.96631H16.8154C16.4108 4.96631 16.0829 5.29414 16.0829 5.69873C16.0829 6.10332 16.4108 6.43115 16.8154 6.43115H32.0296C32.4342 6.43115 32.762 6.10332 32.762 5.69873C32.762 5.29414 32.4342 4.96631 32.0296 4.96631Z" fill="#E6514A"/>
<path fill-rule="evenodd" clip-rule="evenodd" d="M15.8329 5.69873C15.8329 5.15607 16.2727 4.71631 16.8154 4.71631H32.0296C32.5723 4.71631 33.012 5.15607 33.012 5.69873C33.012 6.24139 32.5723 6.68115 32.0296 6.68115H16.8154C16.2727 6.68115 15.8329 6.24139 15.8329 5.69873ZM16.8154 5.21631C16.5488 5.21631 16.3329 5.43221 16.3329 5.69873C16.3329 5.96525 16.5488 6.18115 16.8154 6.18115H32.0296C32.2961 6.18115 32.512 5.96525 32.512 5.69873C32.512 5.43221 32.2961 5.21631 32.0296 5.21631H16.8154Z" fill="#E6514A"/>
<path d="M32.0296 9.25342H16.8154C16.4108 9.25342 16.0829 9.58125 16.0829 9.98584C16.0829 10.3904 16.4108 10.7183 16.8154 10.7183H32.0296C32.4342 10.7183 32.762 10.3904 32.762 9.98584C32.762 9.58125 32.4342 9.25342 32.0296 9.25342Z" fill="#E6514A"/>
<path fill-rule="evenodd" clip-rule="evenodd" d="M15.8329 9.98584C15.8329 9.44318 16.2727 9.00342 16.8154 9.00342H32.0296C32.5723 9.00342 33.012 9.44318 33.012 9.98584C33.012 10.5285 32.5723 10.9683 32.0296 10.9683H16.8154C16.2727 10.9683 15.8329 10.5285 15.8329 9.98584ZM16.8154 9.50342C16.5488 9.50342 16.3329 9.71932 16.3329 9.98584C16.3329 10.2524 16.5488 10.4683 16.8154 10.4683H32.0296C32.2961 10.4683 32.512 10.2524 32.512 9.98584C32.512 9.71932 32.2961 9.50342 32.0296 9.50342H16.8154Z" fill="#E6514A"/>
<path d="M46.0474 25.3305H41.6992V23.2857C41.6992 20.5908 39.5068 18.3984 36.8118 18.3984H28.5775C25.8825 18.3984 23.6901 20.5908 23.6901 23.2857V25.3305H19.3419C17.155 25.3305 15.3893 27.1036 15.3893 29.2831V46.0334C15.3893 48.2128 17.1624 49.986 19.3419 49.986H46.0475C48.2269 49.986 50.0001 48.2129 50.0001 46.0334V42.8596C50.0001 42.455 49.6723 42.1271 49.2677 42.1271C48.8631 42.1271 48.5353 42.455 48.5353 42.8596V46.0334C48.5353 47.4052 47.4193 48.5212 46.0475 48.5212H19.3419C17.9701 48.5212 16.8541 47.4052 16.8541 46.0334V35.6527C18.0083 37.0759 19.7447 38.0087 21.6972 38.085V39.2032C21.6972 40.6791 22.898 41.8799 24.3739 41.8799C25.8497 41.8799 27.0505 40.6791 27.0505 39.2032V38.09H38.3388V39.2032C38.3388 40.6791 39.5396 41.8799 41.0155 41.8799C42.4913 41.8799 43.6921 40.6791 43.6921 39.2032V38.085C45.6447 38.0087 47.381 37.0759 48.5352 35.6527V39.4354C48.5352 39.84 48.863 40.1679 49.2676 40.1679C49.6722 40.1679 50 39.84 50 39.4354V29.2829C50 27.1042 48.2351 25.3305 46.0474 25.3305ZM25.1549 23.2857C25.1549 21.3986 26.6903 19.8633 28.5775 19.8633H36.8118C38.699 19.8633 40.2344 21.3986 40.2344 23.2857V25.3305H38.7091V23.2857C38.7091 22.2397 37.858 21.3887 36.8118 21.3887H28.5775C27.5314 21.3887 26.6803 22.2397 26.6803 23.2857V25.3305H25.1549V23.2857ZM28.1451 25.3305V23.2857C28.1451 23.0475 28.339 22.8535 28.5775 22.8535H36.8118C37.0502 22.8535 37.2443 23.0474 37.2443 23.2857V25.3305H28.1451ZM25.5857 39.2032C25.5857 39.8715 25.0421 40.415 24.3739 40.415C23.7056 40.415 23.162 39.8715 23.162 39.2032V36.585C23.162 35.9167 23.7056 35.3731 24.3739 35.3731C25.0421 35.3731 25.5857 35.9167 25.5857 36.585V39.2032ZM42.2273 39.2032C42.2273 39.8715 41.6837 40.415 41.0155 40.415C40.3472 40.415 39.8036 39.8715 39.8036 39.2032V37.3651C39.8036 37.3626 39.8037 37.3601 39.8037 37.3576C39.8037 37.3552 39.8036 37.3525 39.8036 37.3501V36.5851C39.8036 35.9168 40.3472 35.3732 41.0155 35.3732C41.6837 35.3732 42.2273 35.9168 42.2273 36.5851V39.2032ZM43.6921 36.6186V36.5851C43.6921 35.1092 42.4913 33.9084 41.0155 33.9084C39.5396 33.9084 38.3388 35.1092 38.3388 36.5851V36.6252H27.0505V36.5851C27.0505 35.1092 25.8497 33.9084 24.3739 33.9084C22.898 33.9084 21.6972 35.1092 21.6972 36.5851V36.6186C19.0037 36.483 16.8541 34.2491 16.8541 31.5226V29.2829C16.8541 27.9092 17.9675 26.7952 19.3419 26.7952H46.0475C47.4184 26.7952 48.5353 27.9057 48.5353 29.283V31.5226C48.5352 34.2491 46.3856 36.483 43.6921 36.6186Z" fill="#3035C4"/>
<path d="M14.445 48.5208H3.62197C2.43252 48.5208 1.46484 47.5531 1.46484 46.3637V11.1827C1.46484 11.0246 1.48174 10.8691 1.51475 10.7183H8.18027C9.57197 10.7183 10.7042 9.58603 10.7042 8.19443V1.52891C10.8551 1.496 11.0105 1.479 11.1687 1.479H36.0015C37.1909 1.479 38.1586 2.44668 38.1586 3.63613V16.2027C38.1586 16.6073 38.4864 16.9352 38.891 16.9352C39.2956 16.9352 39.6234 16.6073 39.6234 16.2027V3.63613C39.6234 1.63897 37.9986 0.0141602 36.0015 0.0141602H11.1686C10.2011 0.0141602 9.29141 0.39082 8.60732 1.0749L1.06074 8.62158C0.37666 9.30566 0 10.2152 0 11.1827V46.3637C0 48.3608 1.6248 49.9856 3.62197 49.9856H14.445C14.8496 49.9856 15.1774 49.6578 15.1774 49.2532C15.1774 48.8486 14.8496 48.5208 14.445 48.5208ZM9.23926 2.51484V8.19443C9.23926 8.77832 8.76416 9.25342 8.18017 9.25342H2.50068L9.23926 2.51484Z" fill="#3035C4"/>
<path fill-rule="evenodd" clip-rule="evenodd" d="M8.43055 0.898126C9.16153 0.167141 10.1348 -0.23584 11.1686 -0.23584H36.0015C38.1367 -0.23584 39.8734 1.50089 39.8734 3.63613V16.2027C39.8734 16.7454 39.4337 17.1852 38.891 17.1852C38.3484 17.1852 37.9086 16.7454 37.9086 16.2027V3.63613C37.9086 2.58475 37.0528 1.729 36.0015 1.729H11.1687C11.0964 1.729 11.0249 1.733 10.9542 1.74087V8.19443C10.9542 9.72411 9.71004 10.9683 8.18027 10.9683H1.72667C1.71882 11.0389 1.71484 11.1104 1.71484 11.1827V46.3637C1.71484 47.4151 2.57059 48.2708 3.62197 48.2708H14.445C14.9877 48.2708 15.4274 48.7106 15.4274 49.2532C15.4274 49.7959 14.9877 50.2356 14.445 50.2356H3.62197C1.48673 50.2356 -0.25 48.4989 -0.25 46.3637V11.1827C-0.25 10.1489 0.152986 9.17578 0.883964 8.44481L8.43055 0.898126ZM11.1686 0.26416C10.2674 0.26416 9.42128 0.614499 8.7841 1.25168L1.23752 8.79836C0.600334 9.43554 0.25 10.2815 0.25 11.1827V46.3637C0.25 48.2228 1.76288 49.7356 3.62197 49.7356H14.445C14.7115 49.7356 14.9274 49.5197 14.9274 49.2532C14.9274 48.9867 14.7115 48.7708 14.445 48.7708H3.62197C2.29445 48.7708 1.21484 47.6912 1.21484 46.3637V11.1827C1.21484 11.0068 1.23365 10.8334 1.27052 10.6648L1.31353 10.4683H8.18027C9.43391 10.4683 10.4542 9.44796 10.4542 8.19443V1.32756L10.6509 1.28465C10.8193 1.24793 10.9926 1.229 11.1687 1.229H36.0015C37.329 1.229 38.4086 2.30861 38.4086 3.63613V16.2027C38.4086 16.4693 38.6245 16.6852 38.891 16.6852C39.1575 16.6852 39.3734 16.4693 39.3734 16.2027V3.63613C39.3734 1.77704 37.8606 0.26416 36.0015 0.26416H11.1686ZM9.48926 1.91129V8.19443C9.48926 8.91641 8.90222 9.50342 8.18017 9.50342H1.89713L9.48926 1.91129ZM3.10424 9.00342H8.18017C8.6261 9.00342 8.98926 8.64023 8.98926 8.19443V3.1184L3.10424 9.00342Z" fill="#3035C4"/>
</g>
<defs>
<clipPath id="clip0_2123_24">
<rect width="50" height="50" fill="white"/>
</clipPath>
</defs>
</svg>
