<?xml version="1.0" encoding="utf-8"?><svg viewBox="0 0 170 80" xmlns="http://www.w3.org/2000/svg" xmlns:xlink="http://www.w3.org/1999/xlink"><style>:root>svg{display:none}:root>svg:target{display:block}</style><svg  viewBox="0 0 50 50" id="advantages-1" xmlns="http://www.w3.org/2000/svg"><path d="M44.663 39.847c.536-.74.853-1.65.853-2.631v-5.868a.977.977 0 00-.977-.977h-4.364a3.663 3.663 0 00-3.66 3.66v3.185c0 .981.317 1.89.853 2.63a6.287 6.287 0 00-1.91.635 8.309 8.309 0 00-6.134-3.656l-.03-.008a5.741 5.741 0 001.471-3.841V25a.977.977 0 00-.976-.977h-5.932a4.628 4.628 0 00-4.622 4.623v4.33c0 1.474.557 2.82 1.47 3.841l-.03.008a8.309 8.309 0 00-6.134 3.656 6.297 6.297 0 00-1.909-.635c.536-.74.852-1.649.852-2.63v-5.868a.977.977 0 00-.976-.977H8.143a3.663 3.663 0 00-3.659 3.66v3.185c0 .982.317 1.89.853 2.631C2.315 40.341 0 42.97 0 46.13v2.893c0 .54.437.977.977.977h48.046c.54 0 .977-.437.977-.977V46.13c0-3.16-2.315-5.789-5.337-6.283zM6.438 34.03c0-.94.765-1.706 1.705-1.706h3.388v1.19c0 .583-.474 1.057-1.057 1.057H6.437v-.54zm0 2.494h4.036a2.99 2.99 0 001.057-.192v.884a2.55 2.55 0 01-2.547 2.547 2.55 2.55 0 01-2.546-2.547v-.692zm3.176 5.192l-.63.63-.63-.63h1.26zm3.526 3.375v2.956H1.953V46.13a4.421 4.421 0 013.699-4.355l2.642 2.642a.977.977 0 001.38 0l2.644-2.643c.467.076.916.226 1.334.447a8.263 8.263 0 00-.512 2.87zM25 36.788a3.817 3.817 0 01-3.812-3.812v-1.291h5.836c.647 0 1.257-.165 1.788-.456v1.747A3.817 3.817 0 0125 36.788zm1.702 1.953L25 40.443l-1.702-1.702h3.404zm-5.514-10.095a2.672 2.672 0 012.669-2.67h4.955v1.968a1.79 1.79 0 01-1.788 1.788h-5.836v-1.086zm13.719 19.4H15.093v-1.952h6.359a.977.977 0 000-1.953h-6.288a6.364 6.364 0 015.43-5.342l3.715 3.716a.973.973 0 001.381 0l3.716-3.716c3.101.417 5.5 3.079 5.5 6.292v2.956zm3.562-14.016c0-.94.765-1.706 1.706-1.706h3.388v1.19c0 .583-.475 1.057-1.058 1.057h-4.036v-.54zm0 2.494h4.036c.372 0 .728-.068 1.057-.192v.884a2.55 2.55 0 01-2.546 2.547 2.55 2.55 0 01-2.547-2.547v-.692zm3.176 5.192l-.63.63-.629-.63h1.26zm-4.785 6.33v-2.955a8.264 8.264 0 00-.512-2.87c.418-.221.867-.371 1.334-.447l2.643 2.643a.977.977 0 001.381 0l2.642-2.642a4.421 4.421 0 013.699 4.355v1.917H36.86z" /><path d="M29.813 6.38a.977.977 0 00-1.381 0l-4.792 4.793L21.568 9.1a.977.977 0 10-1.38 1.381l2.761 2.762a.977.977 0 001.381 0l5.483-5.482a.976.976 0 000-1.381z" /><path d="M28.993.847a.977.977 0 00-.795 1.784 7.873 7.873 0 014.661 7.182c0 4.333-3.525 7.859-7.859 7.859s-7.86-3.526-7.86-7.86a7.878 7.878 0 014.629-7.166.977.977 0 00-.804-1.78 9.835 9.835 0 00-5.777 8.947c0 5.41 4.402 9.812 9.812 9.812 5.41 0 9.813-4.402 9.813-9.812 0-3.87-2.285-7.39-5.82-8.966z" /><path d="M25.035 0H25a.977.977 0 000 1.953h.031A.976.976 0 0025.035 0zM25.69 44.427a.983.983 0 00-.69-.286.984.984 0 00-.69.286.984.984 0 00-.287.69c0 .257.105.509.287.69a.984.984 0 00.69.287.983.983 0 00.69-.286.984.984 0 00.287-.69.983.983 0 00-.287-.691z" /></svg><svg  viewBox="0 0 50 50" id="advantages-2" xmlns="http://www.w3.org/2000/svg"><g clip-path="url(#bclip0_2123_2)"><path d="M27.342 8.27h-5.796V1.465h1.22a.732.732 0 100-1.465H7.998a.733.733 0 000 1.465h1.22V8.27H3.422A3.426 3.426 0 000 11.69v31.731a3.427 3.427 0 002.93 3.387v.994A2.2 2.2 0 005.127 50a2.2 2.2 0 002.198-2.197v-.96h16.114v.96A2.2 2.2 0 0025.637 50a2.2 2.2 0 002.197-2.197v-.994a3.427 3.427 0 002.93-3.387V17.267a.732.732 0 00-1.465 0v26.155a1.96 1.96 0 01-1.957 1.957H3.422a1.96 1.96 0 01-1.957-1.957v-31.73a1.96 1.96 0 011.957-1.958h23.92a1.96 1.96 0 011.957 1.957v2.147a.732.732 0 001.465 0v-2.147a3.426 3.426 0 00-3.422-3.421zm-.973 38.574v.959a.733.733 0 01-1.465 0v-.96h1.465zm-20.51 0v.959a.733.733 0 01-1.464 0v-.96H5.86zm4.824-45.38h9.398V8.27h-9.398V1.465z" /><path fill-rule="evenodd" clip-rule="evenodd" d="M7.015.732c0-.542.44-.982.983-.982h14.768a.983.983 0 010 1.965h-.97V8.02h5.546a3.676 3.676 0 013.672 3.671v2.147a.982.982 0 01-1.965 0v-2.147a1.71 1.71 0 00-1.707-1.707H3.422a1.71 1.71 0 00-1.707 1.707v31.731a1.71 1.71 0 001.707 1.707h23.92a1.71 1.71 0 001.707-1.707V17.267a.982.982 0 011.965 0v26.155a3.678 3.678 0 01-2.93 3.596v.785a2.45 2.45 0 01-2.447 2.447 2.45 2.45 0 01-2.448-2.447v-.71H7.575v.71a2.45 2.45 0 01-2.448 2.447 2.45 2.45 0 01-2.447-2.447v-.785a3.678 3.678 0 01-2.93-3.596v-31.73A3.676 3.676 0 013.422 8.02h5.546V1.715h-.97a.982.982 0 01-.983-.983zM7.998.25a.483.483 0 100 .965h1.47V8.52H3.422A3.176 3.176 0 00.25 11.69v31.731a3.177 3.177 0 002.716 3.14l.214.03v1.21a1.95 1.95 0 001.947 1.948 1.95 1.95 0 001.948-1.947v-1.21h16.614v1.21a1.95 1.95 0 001.948 1.947 1.95 1.95 0 001.947-1.947v-1.21l.214-.032a3.177 3.177 0 002.716-3.139V17.267a.482.482 0 00-.965 0v26.155a2.21 2.21 0 01-2.207 2.207H3.422a2.21 2.21 0 01-2.207-2.207v-31.73a2.21 2.21 0 012.207-2.208h23.92c1.217 0 2.207.99 2.207 2.207v2.147a.482.482 0 00.965 0v-2.147a3.176 3.176 0 00-3.172-3.171h-6.046V1.215h1.47a.482.482 0 100-.965H7.998zm2.435.965h9.898V8.52h-9.898V1.215zm.5.5V8.02h8.898V1.715h-8.898zM4.145 46.594H6.11v1.209a.983.983 0 01-1.965 0v-1.21zm.5.5v.709a.483.483 0 00.965 0v-.71h-.965zm20.009-.5h1.965v1.209a.983.983 0 01-1.965 0v-1.21zm.5.5v.709a.483.483 0 00.965 0v-.71h-.965z" /><path d="M9.94 43.914h17.162a.733.733 0 00.732-.732V26.873a.733.733 0 00-.732-.732H3.662a.733.733 0 00-.732.732v16.309c0 .404.328.732.732.732h2.93a.733.733 0 000-1.465H4.395V27.606h21.974v14.843H9.939a.733.733 0 000 1.465z" /><path fill-rule="evenodd" clip-rule="evenodd" d="M2.68 26.873c0-.543.44-.982.982-.982h23.44c.542 0 .982.44.982.982v16.309c0 .542-.44.982-.982.982H9.939a.983.983 0 010-1.965h16.18V27.856H4.645v14.343h1.947a.982.982 0 110 1.965h-2.93a.983.983 0 01-.982-.982V26.873zm.982-.482a.483.483 0 00-.482.482v16.309c0 .266.216.482.482.482h2.93a.483.483 0 000-.965H4.145V27.356h22.474v15.343H9.939a.483.483 0 000 .965h17.163a.483.483 0 00.482-.482V26.873a.482.482 0 00-.482-.482H3.662z" /><path d="M21.828 33.61a.732.732 0 00.732-.731v-2.38h1.612a.732.732 0 100-1.464H6.592a.733.733 0 100 1.465h14.503v2.379c0 .404.328.732.733.732z" /><path fill-rule="evenodd" clip-rule="evenodd" d="M5.61 29.767c0-.543.44-.982.982-.982h17.58a.982.982 0 110 1.965H22.81v2.129a.983.983 0 01-1.965 0v-2.13H6.592a.982.982 0 01-.982-.982zm.982-.482a.482.482 0 100 .965h14.753v2.629a.482.482 0 00.965 0v-2.63h1.862a.482.482 0 100-.964H6.592z" /><path d="M20.265 19.981a.733.733 0 00.733-.732v-2.93a.732.732 0 00-.733-.732h-9.766a.732.732 0 00-.733.732v2.93c0 .405.328.732.733.732h9.766zm-9.034-2.93h8.302v1.466H11.23v-1.465z" /><path fill-rule="evenodd" clip-rule="evenodd" d="M9.516 16.32c0-.543.44-.983.983-.983h9.766c.543 0 .983.44.983.982v2.93c0 .543-.44.982-.983.982h-9.766a.982.982 0 01-.983-.982v-2.93zm.983-.483a.483.483 0 00-.483.482v2.93c0 .266.216.482.483.482h9.766a.483.483 0 00.483-.482v-2.93a.482.482 0 00-.483-.482h-9.766zm.482.965h8.802v1.965H10.98v-1.965zm.5.5v.965h7.802v-.965H11.48z" /><path d="M46.578 22.887h-5.822v-2.786a2.332 2.332 0 00-2.33-2.33h-5.513a.732.732 0 100 1.465h5.513c.477 0 .865.388.865.865v2.786h-6.378a.732.732 0 100 1.465h6.378v1.464l-1.548 1.577a.732.732 0 00-.21.513V32.4c0 .404.328.732.733.732h3.516a.733.733 0 00.732-.732v-4.493a.732.732 0 00-.21-.513l-1.548-1.577v-1.464h5.822a1.96 1.96 0 011.957 1.957v11.542h-2.492a.732.732 0 100 1.465h2.492v1.93H32.913a.732.732 0 100 1.465h15.622v.711a1.96 1.96 0 01-1.957 1.957H32.913a.732.732 0 100 1.465h10.003v.959A2.2 2.2 0 0045.113 50a2.2 2.2 0 002.197-2.197v-1.038A3.428 3.428 0 0050 43.422V26.309a3.426 3.426 0 00-3.422-3.422zm-5.53 8.78h-2.05v-3.461l1.026-1.045 1.025 1.045v3.46zm4.797 16.136a.733.733 0 01-1.465 0v-.96h1.465v.96z" /><path fill-rule="evenodd" clip-rule="evenodd" d="M31.93 18.503c0-.542.44-.982.983-.982h5.513a2.582 2.582 0 012.58 2.58v2.536h5.572a3.676 3.676 0 013.672 3.672v17.113a3.678 3.678 0 01-2.69 3.538v.843a2.45 2.45 0 01-2.447 2.447 2.45 2.45 0 01-2.447-2.447v-.71h-9.753a.982.982 0 110-1.964h13.665a1.71 1.71 0 001.707-1.707v-.46H32.913a.982.982 0 110-1.966h15.372v-1.43h-2.242a.982.982 0 110-1.965h2.242V26.31a1.71 1.71 0 00-1.707-1.707h-5.572v1.112l1.477 1.504c.18.184.281.431.281.688V32.4c0 .542-.44.982-.983.982h-3.515a.983.983 0 01-.983-.982v-4.493c0-.257.101-.504.281-.688l1.477-1.504v-1.112h-6.128a.982.982 0 110-1.965h6.128v-2.536a.616.616 0 00-.615-.615h-5.513a.982.982 0 01-.983-.983zm.983-.482a.482.482 0 100 .965h5.513c.615 0 1.115.5 1.115 1.115v3.036h-6.628a.482.482 0 100 .965h6.628v1.817l-1.62 1.65a.483.483 0 00-.138.337V32.4c0 .266.216.482.483.482h3.516a.483.483 0 00.482-.482v-4.493a.483.483 0 00-.138-.337l-1.62-1.65v-1.817h6.072a2.21 2.21 0 012.207 2.207v11.792h-2.742a.482.482 0 100 .965h2.742v2.43H32.913a.482.482 0 100 .965h15.872v.961a2.21 2.21 0 01-2.207 2.207H32.913a.482.482 0 100 .965h10.253v1.209a1.95 1.95 0 001.947 1.947 1.95 1.95 0 001.947-1.947v-1.24l.197-.042a3.178 3.178 0 002.493-3.099V26.309a3.176 3.176 0 00-3.172-3.172h-6.072v-3.036c0-1.147-.933-2.08-2.08-2.08h-5.513zm7.11 8.784l1.276 1.299v3.812h-2.551v-3.812l1.276-1.3zm-.775 1.503v3.108h1.551v-3.108l-.776-.79-.775.79zm4.882 18.286h1.965v1.209a.983.983 0 01-1.965 0v-1.21zm1.465 1.218v-.718h-.965v.709a.483.483 0 00.965.01z" /><path d="M32.913 39.316h9.745a.732.732 0 100-1.464h-9.745a.732.732 0 100 1.464z" /><path fill-rule="evenodd" clip-rule="evenodd" d="M31.93 38.584c0-.543.44-.982.983-.982h9.745a.982.982 0 110 1.964h-9.745a.982.982 0 01-.983-.982zm.983-.482a.482.482 0 100 .964h9.745a.482.482 0 100-.964h-9.745z" /></g><defs><clipPath id="bclip0_2123_2"><path  d="M0 0h50v50H0z"/></clipPath></defs></svg><svg  viewBox="0 0 50 50" id="advantages-3" xmlns="http://www.w3.org/2000/svg"><g clip-path="url(#cclip0_2123_24)"><path d="M32.03 4.966H16.815a.732.732 0 100 1.465H32.03a.732.732 0 100-1.465z" /><path fill-rule="evenodd" clip-rule="evenodd" d="M15.833 5.699c0-.543.44-.983.982-.983H32.03a.982.982 0 110 1.965H16.815a.982.982 0 01-.982-.982zm.982-.483a.482.482 0 100 .965H32.03a.482.482 0 100-.965H16.815z" /><path d="M32.03 9.253H16.815a.732.732 0 100 1.465H32.03a.732.732 0 100-1.465z" /><path fill-rule="evenodd" clip-rule="evenodd" d="M15.833 9.986c0-.543.44-.983.982-.983H32.03a.982.982 0 110 1.965H16.815a.982.982 0 01-.982-.982zm.982-.483a.482.482 0 100 .965H32.03a.482.482 0 100-.965H16.815z" /><path d="M46.047 25.33H41.7v-2.044a4.893 4.893 0 00-4.887-4.888h-8.234a4.893 4.893 0 00-4.888 4.888v2.044h-4.348a3.952 3.952 0 00-3.953 3.953v16.75a3.957 3.957 0 003.953 3.953h26.706A3.957 3.957 0 0050 46.033V42.86a.732.732 0 10-1.465 0v3.173a2.49 2.49 0 01-2.487 2.488H19.341a2.49 2.49 0 01-2.488-2.488v-10.38a6.56 6.56 0 004.843 2.432v1.118a2.68 2.68 0 002.677 2.677 2.68 2.68 0 002.677-2.677V38.09h11.288v1.113a2.68 2.68 0 002.677 2.677 2.68 2.68 0 002.676-2.677v-1.118a6.56 6.56 0 004.843-2.432v3.782a.732.732 0 101.465 0V29.283a3.952 3.952 0 00-3.953-3.953zm-20.892-2.044a3.426 3.426 0 013.422-3.423h8.235a3.426 3.426 0 013.422 3.423v2.044H38.71v-2.044a1.9 1.9 0 00-1.897-1.897h-8.234a1.9 1.9 0 00-1.898 1.897v2.044h-1.525v-2.044zm2.99 2.044v-2.044c0-.239.194-.433.433-.433h8.234c.238 0 .432.194.432.433v2.044h-9.099zm-2.56 13.873a1.213 1.213 0 01-2.423 0v-2.618c0-.668.544-1.212 1.212-1.212.668 0 1.212.544 1.212 1.212v2.618zm16.642 0a1.213 1.213 0 01-2.423 0v-1.838-.007-.773c0-.668.543-1.212 1.212-1.212.668 0 1.211.544 1.211 1.212v2.618zm1.465-2.584v-.034a2.68 2.68 0 00-2.676-2.677 2.68 2.68 0 00-2.677 2.677v.04H27.05v-.04a2.68 2.68 0 00-2.677-2.677 2.68 2.68 0 00-2.677 2.677v.034a5.109 5.109 0 01-4.843-5.096v-2.24a2.488 2.488 0 012.488-2.488h26.706c1.37 0 2.487 1.11 2.487 2.488v2.24a5.11 5.11 0 01-4.843 5.096z" /><path d="M14.445 48.52H3.622a2.16 2.16 0 01-2.157-2.156V11.183c0-.158.017-.314.05-.465H8.18a2.527 2.527 0 002.524-2.524V1.53c.151-.033.306-.05.465-.05H36a2.16 2.16 0 012.158 2.157v12.567a.732.732 0 101.464 0V3.636A3.626 3.626 0 0036.002.014H11.169c-.968 0-1.878.377-2.562 1.06L1.061 8.623A3.598 3.598 0 000 11.182v35.182a3.626 3.626 0 003.622 3.622h10.823a.732.732 0 100-1.465zM9.239 2.516v5.68A1.06 1.06 0 018.18 9.252H2.5l6.74-6.738z" /><path fill-rule="evenodd" clip-rule="evenodd" d="M8.43.898A3.848 3.848 0 0111.17-.236h24.833a3.876 3.876 0 013.871 3.872v12.567a.982.982 0 11-1.964 0V3.636a1.91 1.91 0 00-1.907-1.907H11.169c-.073 0-.144.004-.215.012v6.453a2.777 2.777 0 01-2.774 2.774H1.727a1.94 1.94 0 00-.012.215v35.18a1.91 1.91 0 001.907 1.908h10.823a.982.982 0 110 1.965H3.622A3.876 3.876 0 01-.25 46.364V11.183c0-1.034.403-2.007 1.134-2.738L8.431.898zM11.17.264c-.902 0-1.748.35-2.385.988L1.238 8.798a3.348 3.348 0 00-.988 2.385v35.18a3.376 3.376 0 003.372 3.373h10.823a.482.482 0 100-.965H3.622a2.41 2.41 0 01-2.407-2.407V11.183c0-.176.019-.35.056-.518l.043-.197H8.18a2.277 2.277 0 002.274-2.274V1.328l.197-.043c.168-.037.342-.056.518-.056H36a2.41 2.41 0 012.408 2.407v12.567a.482.482 0 10.964 0V3.636A3.376 3.376 0 0036.002.264H11.169zm-1.68 1.647v6.283a1.31 1.31 0 01-1.309 1.31H1.897L9.49 1.91zM3.104 9.003H8.18a.81.81 0 00.81-.809V3.118L3.103 9.003z" /></g><defs><clipPath id="cclip0_2123_24"><path  d="M0 0h50v50H0z"/></clipPath></defs></svg><svg  viewBox="0 0 20 20" id="btn-phone" xmlns="http://www.w3.org/2000/svg"><path d="M11.696 12.988l-1.139 1.193a.53.53 0 01-.678.078l-.007-.007a14.113 14.113 0 01-3.926-4.112l-.01-.012a.597.597 0 01.073-.712l1.139-1.193a1.46 1.46 0 00.014-2.018L5.353 4.31a1.323 1.323 0 00-1.932-.01l-.476.498c-1.947 2.04-2.253 5.213-.728 7.543l.705 1.076a15.07 15.07 0 003.817 3.999l1.026.737c2.224 1.599 5.252 1.278 7.2-.762l.467-.49a1.48 1.48 0 00.008-2.024l-1.817-1.904c-.536-.56-1.383-.555-1.927.015zm3.085 2.56c.178.18.183.476.011.662l-.01.011-.467.489c-1.634 1.713-4.17 1.986-6.03.65l-1.026-.738a14.122 14.122 0 01-3.58-3.75l-.704-1.075c-1.276-1.948-1.015-4.605.62-6.318l.467-.489a.432.432 0 01.631-.01l1.82 1.906c.176.185.17.462-.015.657L5.36 8.735a1.596 1.596 0 00-.184 1.934 15.048 15.048 0 004.18 4.378.309.309 0 01.013.012 1.422 1.422 0 001.838-.198l1.138-1.192c.186-.195.45-.2.628-.015l1.808 1.895zM8.752 1.32a.47.47 0 00.465.477c2.33-.029 4.508.893 6.134 2.597 1.626 1.704 2.507 3.986 2.48 6.426a.471.471 0 00.451.49.47.47 0 00.467-.474v-.005c.03-2.701-.945-5.229-2.748-7.117-1.803-1.89-4.216-2.912-6.795-2.88a.471.471 0 00-.454.487z" /><path d="M9.171 3.966a.456.456 0 00-.399.242.501.501 0 00.004.483c.084.149.237.24.402.237h.004c3.072-.056 5.607 2.509 5.66 5.728v.201a.472.472 0 00.451.49.47.47 0 00.467-.474v-.005c.06-3.75-2.795-6.84-6.375-6.902a5.707 5.707 0 00-.214 0z" /><path d="M11.696 12.988l-1.139 1.193a.53.53 0 01-.678.078l-.007-.007a14.113 14.113 0 01-3.926-4.112l-.01-.012a.597.597 0 01.073-.712l1.139-1.193a1.46 1.46 0 00.014-2.018L5.353 4.31a1.323 1.323 0 00-1.932-.01l-.476.498c-1.947 2.04-2.253 5.213-.728 7.543l.705 1.076a15.07 15.07 0 003.817 3.999l1.026.737c2.224 1.599 5.252 1.278 7.2-.762l.467-.49a1.48 1.48 0 00.008-2.024l-1.817-1.904c-.536-.56-1.383-.555-1.927.015zm3.085 2.56c.178.18.183.476.011.662l-.01.011-.467.489c-1.634 1.713-4.17 1.986-6.03.65l-1.026-.738a14.122 14.122 0 01-3.58-3.75l-.704-1.075c-1.276-1.948-1.015-4.605.62-6.318l.467-.489a.432.432 0 01.631-.01l1.82 1.906c.176.185.17.462-.015.657L5.36 8.735a1.596 1.596 0 00-.184 1.934 15.048 15.048 0 004.18 4.378.309.309 0 01.013.012 1.422 1.422 0 001.838-.198l1.138-1.192c.186-.195.45-.2.628-.015l1.808 1.895zM8.752 1.32a.47.47 0 00.465.477c2.33-.029 4.508.893 6.134 2.597 1.626 1.704 2.507 3.986 2.48 6.426a.471.471 0 00.451.49.47.47 0 00.467-.474v-.005c.03-2.701-.945-5.229-2.748-7.117-1.803-1.89-4.216-2.912-6.795-2.88a.471.471 0 00-.454.487z"  stroke-width=".7"/><path d="M9.171 3.966a.456.456 0 00-.399.242.501.501 0 00.004.483c.084.149.237.24.402.237h.004c3.072-.056 5.607 2.509 5.66 5.728v.201a.472.472 0 00.451.49.47.47 0 00.467-.474v-.005c.06-3.75-2.795-6.84-6.375-6.902a5.707 5.707 0 00-.214 0z"  stroke-width=".7"/></svg><svg  viewBox="0 0 16 16" id="check" xmlns="http://www.w3.org/2000/svg"><path d="M8 0a8 8 0 100 16A8 8 0 008 0zm4.49 5.49c-.883.885-1.477 1.4-3.134 3.397-.956 1.153-1.86 2.391-1.867 2.4l-.396.495a.235.235 0 01-.348.029L3.562 8.853A.801.801 0 014.65 7.68l1.907 1.773c.1.092.257.082.344-.024.294-.365.698-.809 1.134-1.247 1.64-1.653 2.648-2.54 3.186-2.933.654-.476 1.405-.884 1.587-.658.282.353.11.469-.32.9z" /></svg><svg  viewBox="0 0 16 17" id="cursor-hover" xmlns="http://www.w3.org/2000/svg"><path d="M12.36 6.81c0 .14.07-.39.29-.74a1.002 1.002 0 111.9.64v2.26a11.633 11.633 0 01-.24 1.74c-.16.509-.39.993-.68 1.44a7.214 7.214 0 00-1.19 1.81 4.11 4.11 0 00-.1 1c-.001.31.04.62.12.92a5.867 5.867 0 01-1.23 0c-.39-.06-.87-.84-1-1.08a.38.38 0 00-.68 0c-.22.38-.71 1.07-1 1.11-.67.08-2.06 0-3.14 0 0 0 .18-1-.23-1.36-.41-.36-.83-.78-1.14-1.06l-.83-.92a4.44 4.44 0 01-1.24-2c-.21-.94-.19-1.4 0-1.77a1.5 1.5 0 01.85-.65 1.82 1.82 0 01.88.06c.196.082.366.217.49.39.23.31.3.46.21.12s-.2-.85-.41-1.55c-.21-.7-.34-.86-.47-1.23-.13-.37-.3-.72-.5-1.18a12.29 12.29 0 01-.46-1.44 1.43 1.43 0 01.26-1.17 1.41 1.41 0 011.36-.35c.379.165.7.44.92.79.295.472.536.975.72 1.5.33.858.565 1.75.7 2.66a6.54 6.54 0 01.14-1.6 1.11 1.11 0 01.69-.69 2 2 0 01.92-.06c.31.065.585.243.77.5.23.584.36 1.203.38 1.83a6.73 6.73 0 01.23-1.58 1.25 1.25 0 01.69-.48c.33-.06.67-.06 1 0 .271.09.508.262.68.49.212.53.34 1.09.38 1.66" /><path clip-rule="evenodd" d="M12.36 6.81c0 .14.07-.39.29-.74a1.002 1.002 0 111.9.64v2.26a11.633 11.633 0 01-.24 1.74c-.16.509-.39.993-.68 1.44a7.214 7.214 0 00-1.19 1.81 4.11 4.11 0 00-.1 1c-.001.31.04.62.12.92a5.867 5.867 0 01-1.23 0c-.39-.06-.87-.84-1-1.08a.38.38 0 00-.68 0c-.22.38-.71 1.07-1 1.11-.67.08-2.06 0-3.14 0 0 0 .18-1-.23-1.36-.41-.36-.83-.78-1.14-1.06l-.83-.92a4.44 4.44 0 01-1.24-2c-.21-.94-.19-1.4 0-1.77a1.5 1.5 0 01.85-.65 1.82 1.82 0 01.88.06c.196.082.366.217.49.39.23.31.3.46.21.12s-.2-.85-.41-1.55c-.21-.7-.34-.86-.47-1.23-.13-.37-.3-.72-.5-1.18a12.29 12.29 0 01-.46-1.44 1.43 1.43 0 01.26-1.17 1.41 1.41 0 011.36-.35c.379.165.7.44.92.79.295.472.536.975.72 1.5.33.858.565 1.75.7 2.66a6.54 6.54 0 01.14-1.6 1.11 1.11 0 01.69-.69 2 2 0 01.92-.06c.31.065.585.243.77.5.23.584.36 1.203.38 1.83a6.73 6.73 0 01.23-1.58 1.25 1.25 0 01.69-.48c.33-.06.67-.06 1 0 .271.09.508.262.68.49a5.49 5.49 0 01.34 1.65z"  stroke-width=".75" stroke-linejoin="round"/><path d="M11.75 12.826V9.374a.375.375 0 00-.75 0v3.452a.375.375 0 00.75 0zM9.76 12.826l-.01-3.454a.374.374 0 00-.75.002l.01 3.454c0 .206.169.373.376.372a.374.374 0 00.374-.374zM7 9.38l.02 3.444c.001.21.17.377.377.376a.376.376 0 00.373-.38l-.02-3.445A.376.376 0 007.373 9 .376.376 0 007 9.38z" /></svg><svg  viewBox="0 0 16 16" id="facebook" xmlns="http://www.w3.org/2000/svg"><path d="M4.47 8.47h1.562v6.498c0 .128.103.232.23.232h2.65c.126 0 .23-.104.23-.232V8.5h1.795a.23.23 0 00.229-.206l.272-2.392a.234.234 0 00-.056-.181.23.23 0 00-.172-.078H9.141v-1.5c0-.452.241-.68.716-.68h1.353c.127 0 .23-.105.23-.233V1.034a.231.231 0 00-.23-.232H9.346C9.333.802 9.304.8 9.26.8c-.324 0-1.448.064-2.336.89-.984.914-.848 2.01-.815 2.2v1.753H4.47a.231.231 0 00-.23.232v2.362c0 .128.103.232.23.232z" /><path d="M8.829 15.2h-2.57a.51.51 0 01-.51-.51V8.738H4.52a.51.51 0 01-.51-.51V5.96a.51.51 0 01.51-.51h1.305V4.077c-.044-.278-.142-1.405.882-2.347C7.645.867 8.827.8 9.167.8c.042 0 .072 0 .09.002h1.802a.51.51 0 01.51.51V3.42a.51.51 0 01-.51.51H9.746c-.342 0-.407.129-.407.367V5.45h1.72a.51.51 0 01.506.568L11.3 8.315a.51.51 0 01-.506.452H9.338v5.923a.51.51 0 01-.51.51zm-2.506-.574h2.442V8.48c0-.158.128-.287.287-.287h1.685l.25-2.17H9.052a.287.287 0 01-.287-.286v-1.44c0-.589.367-.94.981-.94h1.249V1.374H9.236l-.069-.001c-.287 0-1.286.056-2.071.778-.84.773-.732 1.678-.702 1.852a.288.288 0 01.004.05v1.683a.287.287 0 01-.287.287H4.584v2.14h1.452c.158 0 .287.128.287.287v6.175z" /><path d="M6.9 11.184a.287.287 0 01-.287-.287v-.143a.287.287 0 01.574 0v.143a.287.287 0 01-.287.287zM6.9 14.282a.287.287 0 01-.287-.287v-2.18a.287.287 0 11.574 0v2.18a.287.287 0 01-.287.287z" /></svg><svg  viewBox="0 0 170 40" id="footer-logo" xmlns="http://www.w3.org/2000/svg"><path d="M45.433 8.147l-.675.707v2.09a.512.512 0 01-.154.382.54.54 0 01-.6.12.524.524 0 01-.171-.12.51.51 0 01-.153-.381V4.353a.604.604 0 01.153-.383.6.6 0 01.382-.152.61.61 0 01.386.152.605.605 0 01.154.393v2.946l3.029-3.229a.511.511 0 01.35-.206.5.5 0 01.405.11.515.515 0 01.208.348.497.497 0 01-.11.403l-2.45 2.629 2.482 3.243a.5.5 0 01.135.393.557.557 0 01-.212.369.542.542 0 01-.754-.077l-2.405-3.145zM52.146 8.529l-2.22 2.721a.54.54 0 01-.42.207.527.527 0 01-.328-.12.515.515 0 01-.212-.348.492.492 0 01.11-.403l2.382-2.94-2.357-2.917a.501.501 0 01-.11-.404.477.477 0 01.203-.355.486.486 0 01.393-.11c.142.022.271.096.36.208l2.199 2.7 2.153-2.704a.564.564 0 01.57-.196.49.49 0 01.185.098.481.481 0 01.207.359.496.496 0 01-.11.404l-2.317 2.917-.688.883zM58.727 3.846a2.116 2.116 0 011.509.662 2.128 2.128 0 01.032 2.973c-.394.414-.927.67-1.498.719-.006.006-.63.01-1.87.01v2.69a.495.495 0 01-.163.381.527.527 0 01-.763.004.557.557 0 01-.166-.377V4.39A.536.536 0 0155.97 4a.52.52 0 01.384-.154h2.372zm-.088 3.277a1.085 1.085 0 00.798-.328c.208-.208.328-.488.335-.781a1.136 1.136 0 00-.339-.774 1.08 1.08 0 00-.798-.304h-1.734v2.187h1.738zM68.052 6.503a.542.542 0 01-.406.045.46.46 0 01-.309-.241c-.546-.907-1.33-1.36-2.35-1.36a2.768 2.768 0 00-1.931.802 2.745 2.745 0 00-.813 1.92 2.546 2.546 0 00.81 1.904 2.691 2.691 0 001.935.774 2.66 2.66 0 001.282-.323c.402-.22.744-.534.996-.915a.442.442 0 01.341-.244.407.407 0 01.383.11.495.495 0 01.27.315.413.413 0 01-.077.404c-.343.54-.816.986-1.377 1.297a3.659 3.659 0 01-1.826.468 3.754 3.754 0 01-2.711-1.111 3.601 3.601 0 01-1.146-2.68 3.662 3.662 0 011.149-2.721 3.853 3.853 0 014.613-.61 3.465 3.465 0 011.364 1.382.582.582 0 01.077.468.491.491 0 01-.274.316zM69.616 11.447a.52.52 0 01-.388-.153.538.538 0 01-.163-.392v-6.51a.474.474 0 01.163-.381.504.504 0 01.384-.165.528.528 0 01.382.165.476.476 0 01.164.38v2.69c1.24 0 1.863.004 1.87.011.57.05 1.103.305 1.497.719.385.393.597.921.59 1.47a2.19 2.19 0 01-.629 1.51 2.21 2.21 0 01-1.502.657l-2.368-.001zm.54-3.278v2.188h1.739a1.085 1.085 0 00.798-.304c.209-.205.33-.482.34-.773a1.147 1.147 0 00-.34-.785 1.08 1.08 0 00-.798-.326h-1.739zm4.297-3.82a.537.537 0 01.54-.539c.147.004.288.06.395.16a.6.6 0 01.153.382v6.572a.517.517 0 01-.153.38.526.526 0 01-.382.164.562.562 0 01-.54-.538l-.013-6.582zM84.2 3.825a.597.597 0 01.382.153.6.6 0 01.154.396.592.592 0 01-.154.38.595.595 0 01-.382.152h-1.662v6.018a.511.511 0 01-.154.38.523.523 0 01-.382.164.561.561 0 01-.54-.538V4.902h-1.658a.52.52 0 01-.382-.152.521.521 0 01-.122-.589.539.539 0 01.504-.332l4.396-.004zM88.102 8.529l-2.22 2.721a.54.54 0 01-.425.207.522.522 0 01-.328-.12.51.51 0 01-.208-.348.502.502 0 01.11-.403l2.382-2.94-2.36-2.917a.501.501 0 01-.11-.404.538.538 0 01.961-.26l2.198 2.699 2.155-2.7a.564.564 0 01.36-.207.542.542 0 01.602.468.499.499 0 01-.11.404l-2.318 2.917-.689.883zM94.684 3.846a2.116 2.116 0 011.508.662 2.066 2.066 0 01.623 1.503 2.055 2.055 0 01-.59 1.47 2.349 2.349 0 01-1.497.719c-.008.006-.631.01-1.87.01v2.69a.497.497 0 01-.164.381.524.524 0 01-.383.165.565.565 0 01-.54-.538V4.39A.537.537 0 0191.936 4a.518.518 0 01.382-.154h2.366zm-.087 3.277a1.085 1.085 0 00.797-.328c.21-.208.332-.489.34-.784a1.13 1.13 0 00-.34-.774 1.08 1.08 0 00-.797-.304H92.86v2.19h1.738zM101.513 10.357a.599.599 0 01.383.154.544.544 0 01.123.6.495.495 0 01-.123.172.533.533 0 01-.383.164h-3.812a.564.564 0 01-.54-.538V4.39A.537.537 0 0197.326 4a.516.516 0 01.382-.154h3.805a.598.598 0 01.383.154.543.543 0 01.163.391.49.49 0 01-.159.386.532.532 0 01-.387.159h-3.269v2.187h2.493a.598.598 0 01.382.154.544.544 0 01.124.6.51.51 0 01-.124.172.52.52 0 01-.382.164h-2.489v2.144h3.265zM108.284 11.458h-5.015a.508.508 0 01-.382-.165.518.518 0 01-.163-.38V4.402a.483.483 0 01.163-.38.508.508 0 01.382-.165.529.529 0 01.384.164.477.477 0 01.157.38v5.967h3.377V4.402a.483.483 0 01.163-.38.51.51 0 01.384-.165.528.528 0 01.382.164.478.478 0 01.164.38v5.967h.558a.61.61 0 01.393.153c.095.105.15.24.154.381v1.785a.52.52 0 01-.154.38.56.56 0 01-.607.123.544.544 0 01-.179-.122.484.484 0 01-.124-.173.482.482 0 01-.041-.208l.004-1.23zM111.695 8.147l-.676.707v2.09a.504.504 0 01-.154.382.544.544 0 01-.601.121.522.522 0 01-.174-.121.5.5 0 01-.154-.381V4.353a.6.6 0 01.153-.383.597.597 0 01.382-.152.616.616 0 01.393.152.607.607 0 01.154.393v2.946l3.027-3.229a.527.527 0 01.35-.206.504.504 0 01.405.11.516.516 0 01.208.348.497.497 0 01-.109.403l-2.444 2.629 2.482 3.243a.5.5 0 01.135.393.56.56 0 01-.218.369.54.54 0 01-.569.07.514.514 0 01-.184-.147l-2.406-3.145zM119.119 11.447a3.615 3.615 0 01-2.679-1.133 3.746 3.746 0 01-1.105-2.7 3.67 3.67 0 011.105-2.657 3.775 3.775 0 012.678-1.11 3.788 3.788 0 012.678 1.11 3.67 3.67 0 011.105 2.657 3.718 3.718 0 01-1.105 2.7 3.589 3.589 0 01-2.677 1.133zm0-6.545c-.722.001-1.414.287-1.925.795a2.704 2.704 0 00-.798 1.917 2.673 2.673 0 00.798 1.971 2.701 2.701 0 001.924.802 2.71 2.71 0 001.925-.802 2.762 2.762 0 00.81-1.97 2.625 2.625 0 00-.81-1.918 2.633 2.633 0 00-1.924-.795zM124.595 4.947v5.966a.534.534 0 01-.163.391.598.598 0 01-.382.154.525.525 0 01-.383-.154.543.543 0 01-.163-.391V4.402a.483.483 0 01.163-.38.51.51 0 01.384-.165h3.804a.528.528 0 01.382.164.476.476 0 01.158.38.53.53 0 01-.165.393.597.597 0 01-.375.153h-3.26zM132.456 11.447a3.615 3.615 0 01-2.679-1.133 3.747 3.747 0 01-1.104-2.7 3.68 3.68 0 011.104-2.657 3.775 3.775 0 012.679-1.11 3.788 3.788 0 012.678 1.11 3.685 3.685 0 011.105 2.657 3.717 3.717 0 01-1.105 2.7 3.607 3.607 0 01-2.678 1.133zm0-6.545a2.73 2.73 0 00-1.924.796 2.707 2.707 0 00-.798 1.916 2.673 2.673 0 00.798 1.971 2.712 2.712 0 003.849 0 2.761 2.761 0 00.81-1.97 2.608 2.608 0 00-.81-1.918 2.632 2.632 0 00-1.925-.795zM144.68 3.87a.543.543 0 01.393.162.517.517 0 01.163.38v6.512a.496.496 0 01-.163.38.556.556 0 01-.89-.172.496.496 0 01-.04-.208v-2.69h-1.116l-1.814 2.959a.537.537 0 01-.47.269.484.484 0 01-.284-.077.543.543 0 01-.252-.348.49.49 0 01.066-.404l1.531-2.483a2.49 2.49 0 01-1.17-.828 2.06 2.06 0 01-.269-2.131c.116-.264.285-.502.496-.699a2.092 2.092 0 011.498-.62l2.321-.003zm-.541 3.276V4.957h-1.738a1.085 1.085 0 00-.799.306c-.208.204-.33.48-.339.772a1.148 1.148 0 00.704 1.03c.138.057.285.084.434.081h1.738zM147.037 9.41c.02.146.071.286.148.411.076.125.178.234.299.319.255.189.568.284.886.268.322.01.635-.103.875-.316a.984.984 0 00.349-.762 1.093 1.093 0 00-.349-.794 1.188 1.188 0 00-.875-.348.682.682 0 01-.448-.154.485.485 0 01-.164-.38.534.534 0 01.164-.392.682.682 0 01.448-.153 1.191 1.191 0 001.134-.706c.06-.138.09-.288.09-.44a.997.997 0 00-.349-.762 1.26 1.26 0 00-.875-.316 1.594 1.594 0 00-.863.262 1.016 1.016 0 00-.47.599.675.675 0 01-.241.36.47.47 0 01-.437.087c-.371-.067-.557-.27-.558-.611a2.039 2.039 0 01.929-1.274 2.87 2.87 0 011.644-.472 2.639 2.639 0 011.728.61 1.917 1.917 0 01.743 1.525 2.001 2.001 0 01-.874 1.687 2.012 2.012 0 01.874 1.676c0 .575-.248 1.075-.743 1.502a2.559 2.559 0 01-1.728.643 2.83 2.83 0 01-1.717-.538 2.158 2.158 0 01-.852-1.361c0-.34.186-.548.558-.62a.8.8 0 01.459.14.419.419 0 01.215.31zM152.035 11.447a.513.513 0 01-.382-.153.53.53 0 01-.164-.392v-6.51a.483.483 0 01.164-.381.498.498 0 01.382-.165.529.529 0 01.384.165.49.49 0 01.163.38v2.69c1.239 0 1.862.004 1.87.011a2.35 2.35 0 011.5.717c.385.393.597.922.591 1.47a2.195 2.195 0 01-.63 1.51 2.21 2.21 0 01-1.502.658h-2.376zm.54-3.278v2.188h1.739a1.08 1.08 0 00.798-.304c.209-.205.33-.482.338-.773a1.143 1.143 0 00-.338-.785 1.08 1.08 0 00-.798-.326h-1.739zm4.297-3.82a.538.538 0 01.541-.539.605.605 0 01.383.152c.095.106.149.24.153.382v6.58a.52.52 0 01-.153.38.523.523 0 01-.76.001.558.558 0 01-.164-.375V4.348zM160.444 8.147l-.676.708v2.09a.518.518 0 01-.152.38.538.538 0 01-.393.165.528.528 0 01-.384-.164.515.515 0 01-.153-.381V4.353a.613.613 0 01.153-.392.604.604 0 01.384-.152.616.616 0 01.39.161c.096.109.15.248.153.393v2.946l3.028-3.229a.527.527 0 01.35-.205.5.5 0 01.405.108.512.512 0 01.208.349.507.507 0 01-.109.404l-2.449 2.624 2.483 3.243a.503.503 0 01.135.393.571.571 0 01-.208.37.543.543 0 01-.755-.077l-2.41-3.142zM168.163 9.944h-2.668l-.46 1.11c-.051.261-.225.393-.524.393h-.121a.604.604 0 01-.338-.316c-.073-.08-.092-.214-.055-.404l2.339-6.488a.512.512 0 01.541-.393.492.492 0 01.513.393l2.219 6.488a.541.541 0 010 .404.611.611 0 01-.328.316.667.667 0 01-.405-.055.712.712 0 01-.318-.338l-.395-1.11zm-.323-1.1l-.962-2.787-.985 2.787h1.947z" /><path d="M53.588 15.484c.81-1.822 3.562-1.749 4.332.07 2.413 5.097 4.24 10.458 6.544 15.604 1.439.287 3.943.372 3.765 2.456.27 1.518-1.23 2.825-2.702 2.595-6.484.038-12.976.108-19.464.008-1.892.21-3.22-1.775-2.62-3.48.69-1.416 2.402-1.222 3.686-1.572 2.281-5.17 4.048-10.568 6.46-15.681zm-1.11 15.92c2.202-.009 4.403-.009 6.604 0-1.065-2.812-2.139-5.621-3.22-8.428-1.301 2.733-2.336 5.585-3.384 8.427zM69.769 16.169c.045-1.238 1.094-2.19 2.255-2.142a2.212 2.212 0 011.418.631c.38.375.61.873.65 1.405l-.036 12.241a601.57 601.57 0 0010.842-12.97c.237-.323.543-.591.897-.782.717-.386 1.75-.51 2.398-.065.778.538.83 1.697.845 2.22.075 2.393.09 8.987-.024 17.856-.384 1.19-1.533 1.938-2.702 1.808a2.571 2.571 0 01-1.364-.614 2.553 2.553 0 01-.787-1.269c-.05-3.549-.097-7.098-.145-10.647l-6.007 6.397a216.23 216.23 0 01-4.215 4.65c-.262.282-.991 1.034-1.982 1.21-.23.042-.972.174-1.518-.24a1.53 1.53 0 01-.16-.128c-.43-.404-.46-.989-.473-1.227-.04-.712-.01-8.148.108-18.334zM96.74 16.653c.7-1.804 2.52-3.477 4.592-2.78 2.297 1.014 2.837 3.687 3.726 5.784 1.595 4.687 3.782 9.188 5.033 13.99.505 1.892-1.756 3.2-3.377 2.51-1.494-.952-1.68-2.85-2.311-4.353-2.715-.008-5.422 0-8.13-.022-.505 1.247-.886 2.572-1.62 3.71-1.035 1.278-3.353 1.123-4.1-.38-.242-2.17.793-4.183 1.5-6.166 1.626-4.08 2.976-8.256 4.687-12.293zm.832 10.59c1.813 0 3.628-.003 5.445-.008-.946-2.71-1.781-5.454-2.621-8.197-1.02 2.706-1.898 5.455-2.824 8.205zM117.625 17.636c.355-1.049 1.232-3.64 2.814-3.843.279-.031.562.002.826.097 1.792.578 2.518 3.058 2.648 3.523l6.456 16.222a2.403 2.403 0 01-1.502 2.676 2.418 2.418 0 01-2.917-.98l-5.025-12.376-4.323 11.544c-.344 1.12-1.215 1.926-2.235 2.046-.194.023-1.39.134-2.041-.774-.591-.828-.242-1.813-.207-1.91 2.434-7.308 4.389-12.956 5.506-16.225zM138.11 14.617c3.975-1.435 8.938-.977 12.058 2.067 3.695 3.65 3.959 9.686 2.07 14.26-3.243 7.491-15.535 7.677-19.2.473-2.862-5.677-1.471-14.352 5.072-16.8zm1.603 4.554c-3.19 2.317-3.478 7.13-1.728 10.413 1.649 3.184 6.738 3.44 8.729.488 1.844-2.743 1.844-6.578.155-9.398-1.401-2.378-4.901-2.96-7.156-1.503zM156.787 14.693l11.334-.134c1.136.333 1.898 1.345 1.879 2.383-.023 1.285-1.216 2.44-2.724 2.39l-7.486.013-.093 15.066a2.415 2.415 0 01-.794 1.532 2.435 2.435 0 01-4.037-1.517l-.124-15.5c-.035-.19-.421-2.528 1.06-3.719.291-.235.626-.41.985-.514z" /><path d="M25.977 14.98c3.877 0 7.019-3.13 7.019-6.99 0-3.86-3.143-6.99-7.019-6.99-3.876 0-7.019 3.13-7.019 6.99 0 3.86 3.143 6.99 7.02 6.99z"  stroke-width=".83" stroke-miterlimit="10"/><path d="M29.443 10.118a5.292 5.292 0 01-6.754.121"  stroke-width=".83" stroke-miterlimit="10" stroke-linecap="round"/><path d="M23.671 6.409a.283.283 0 01-.285.282.283.283 0 01-.285-.282c0-.154.126-.282.285-.282.16 0 .285.128.285.282zM29.185 6.409a.283.283 0 01-.285.282.283.283 0 01-.285-.282c0-.154.126-.282.285-.282.16 0 .285.128.285.282z"  /><path d="M10.692 18.313c3.877 0 7.02-3.13 7.02-6.99 0-3.86-3.143-6.99-7.02-6.99-3.876 0-7.019 3.13-7.019 6.99 0 3.86 3.143 6.99 7.02 6.99z"  stroke-width=".83" stroke-miterlimit="10"/><path d="M14.16 13.453a5.296 5.296 0 01-6.754.12"  stroke-width=".83" stroke-miterlimit="10" stroke-linecap="round"/><path d="M8.386 9.743a.283.283 0 01-.285.281.283.283 0 01-.284-.281c0-.154.125-.282.284-.282.16 0 .285.128.285.282zM13.9 9.743a.283.283 0 01-.284.281.283.283 0 01-.285-.281c0-.154.125-.282.285-.282.159 0 .284.128.284.282z"  /><path d="M35.67 27.23c0-5.54-4.749-10.257-5.562-11.324-1.08 1.336-3.176 1.614-4.13 1.666-.956-.055-3.051-.33-4.13-1.666-.811 1.067-5.563 5.785-5.563 11.324 0 4.027 2.381 8.407 9.195 8.794v.031c.17 0 .334 0 .497-.01.163-.009.328.01.497.01v-.03c6.822-.388 9.197-4.768 9.197-8.795z" /><path d="M35.67 27.279c0-1.824-.317-2.97-1.037-4.516-1.467-3.146-16.075-2.845-17.542.075-.832 1.655-.81 2.437-.81 4.44 0 4.026 2.381 8.405 9.195 8.793v.031c.17 0 .334 0 .497-.009.163-.01.328.01.497.01v-.032c6.826-.387 9.2-4.766 9.2-8.792z" /><path d="M16.336 28.308c1.004 3.265 2.909 7.41 9.144 7.765v.03c.17 0 .334 0 .497-.009.163-.01.328.01.497.01v-.031c6.233-.356 9.093-5.056 9.144-7.17-2.088-2.583-14.599-2.583-19.282-.595z" /><path opacity=".33" d="M26.06 33.686c-4.146-.414-7.21-3.71-6.841-7.36-.776-.134-1.101.473-1.506.604-.37 3.65 2.701 6.946 6.842 7.36a8.215 8.215 0 004.657-.88 8.4 8.4 0 01-3.151.276z" /><path d="M35.67 27.23c0-5.54-4.749-10.257-5.562-11.324-1.08 1.336-3.176 1.614-4.13 1.666-.956-.055-3.051-.33-4.13-1.666-.811 1.067-5.563 5.785-5.563 11.324 0 4.027 2.381 8.407 9.195 8.794v.031c.17 0 .334 0 .497-.01.163-.009.328.01.497.01v-.03c6.822-.388 9.197-4.768 9.197-8.795z"  stroke-width=".83" stroke-linejoin="round"/><path d="M20.386 30.177c0-5.54-4.75-10.258-5.563-11.325-1.08 1.336-3.176 1.615-4.13 1.665-.956-.054-3.05-.329-4.13-1.665C5.753 19.92 1 24.637 1 30.177c0 4.025 2.382 8.405 9.197 8.792V39c.168 0 .332 0 .495-.01.164-.009.329.01.497.01v-.03c6.815-.388 9.197-4.768 9.197-8.793z"   stroke-width=".83" stroke-linejoin="round"/><path fill-rule="evenodd" clip-rule="evenodd" d="M10.999 28.314l.623.825.98-.333-.597.845.623.826-.992-.304-.596.844-.015-1.033-.992-.304.982-.333L11 28.313z" /><path d="M10.114 33.478a3.766 3.766 0 01-2.657-1.096 3.734 3.734 0 010-5.293 3.766 3.766 0 013.858-.897 4.412 4.412 0 00-4.72-.01 4.386 4.386 0 00-1.627 1.833 4.364 4.364 0 00.592 4.663 4.416 4.416 0 006.603.192 3.76 3.76 0 01-2.049.608z" /></svg><svg  viewBox="0 0 16 16" id="instagram" xmlns="http://www.w3.org/2000/svg"><path d="M10.913 14.93H5.087c-2.205 0-4-1.794-4-3.999V5.069c0-2.205 1.795-4 4-4h5.826c2.205 0 4 1.795 4 4v5.862c0 2.205-1.795 4-4 4zM5.087 2.713A2.359 2.359 0 002.731 5.07v5.862a2.359 2.359 0 002.356 2.356h5.826c1.299 0 2.356-1.057 2.356-2.356V5.069c0-1.3-1.057-2.356-2.356-2.356H5.087z" /><path d="M8 11.43A3.433 3.433 0 014.57 8c0-1.89 1.54-3.43 3.43-3.43 1.89 0 3.43 1.54 3.43 3.43 0 1.89-1.54 3.43-3.43 3.43zm0-5.256c-1.007 0-1.826.82-1.826 1.826 0 1.007.82 1.826 1.826 1.826 1.007 0 1.826-.82 1.826-1.826 0-1.007-.82-1.826-1.826-1.826zM11.51 5.096a.606.606 0 11.001-1.213.606.606 0 01-.001 1.213z" /><path d="M10.913 15.218H5.087A4.292 4.292 0 01.8 10.931V5.069A4.292 4.292 0 015.087.782h5.826A4.292 4.292 0 0115.2 5.069v5.862a4.292 4.292 0 01-4.287 4.287zM5.087 1.358a3.716 3.716 0 00-3.712 3.711v5.862a3.716 3.716 0 003.712 3.712h5.826a3.716 3.716 0 003.712-3.712V5.069a3.716 3.716 0 00-3.712-3.712H5.087zm5.826 12.216H5.087a2.647 2.647 0 01-2.643-2.643V5.069a2.646 2.646 0 012.643-2.643h5.826a2.646 2.646 0 012.643 2.643v5.862a2.646 2.646 0 01-2.643 2.644zM5.087 3.002A2.07 2.07 0 003.02 5.069v5.862a2.07 2.07 0 002.068 2.068h5.826a2.07 2.07 0 002.068-2.068V5.069a2.07 2.07 0 00-2.068-2.068H5.087z" /><path d="M8 11.717A3.72 3.72 0 014.283 8 3.721 3.721 0 018 4.283 3.721 3.721 0 0111.717 8 3.72 3.72 0 018 11.717zm0-6.859A3.145 3.145 0 004.858 8 3.145 3.145 0 008 11.142 3.145 3.145 0 0011.142 8 3.145 3.145 0 008 4.858zm0 5.256A2.116 2.116 0 015.886 8c0-1.165.949-2.114 2.114-2.114s2.114.949 2.114 2.114A2.116 2.116 0 018 10.114zm0-3.652A1.54 1.54 0 006.462 8c0 .848.69 1.538 1.538 1.538A1.54 1.54 0 009.538 8 1.54 1.54 0 008 6.462z" /><path d="M11.51 5.383a.894.894 0 010-1.786.894.894 0 010 1.786zm0-1.21a.318.318 0 100 .636.318.318 0 000-.637zM7.54 14.413H4.837a.288.288 0 010-.575H7.54a.288.288 0 010 .575zM8.633 14.413H8.46a.288.288 0 010-.575h.173a.288.288 0 010 .575z" /></svg><svg  viewBox="0 0 170 40" id="logo" xmlns="http://www.w3.org/2000/svg"><path d="M45.433 8.147l-.675.708v2.09a.511.511 0 01-.154.381.543.543 0 01-.6.12.526.526 0 01-.171-.12.512.512 0 01-.153-.38V4.353a.604.604 0 01.153-.384.6.6 0 01.382-.152.61.61 0 01.386.152.605.605 0 01.154.393V7.31l3.029-3.228a.511.511 0 01.35-.206.5.5 0 01.405.109.515.515 0 01.208.348.498.498 0 01-.11.404l-2.45 2.628 2.482 3.244a.499.499 0 01.135.392.557.557 0 01-.212.369.541.541 0 01-.754-.077l-2.405-3.145zM52.146 8.53l-2.22 2.72a.54.54 0 01-.42.208.528.528 0 01-.328-.12.516.516 0 01-.212-.348.492.492 0 01.11-.404l2.382-2.94-2.357-2.917a.501.501 0 01-.11-.404.477.477 0 01.203-.355.486.486 0 01.393-.109c.142.02.271.095.36.207l2.199 2.7 2.153-2.704a.564.564 0 01.57-.195.49.49 0 01.185.097.481.481 0 01.207.36.496.496 0 01-.11.403l-2.317 2.918-.688.882zM58.727 3.846a2.116 2.116 0 011.509.662 2.128 2.128 0 01.032 2.973c-.394.414-.927.67-1.498.719-.006.006-.63.01-1.87.01v2.69a.495.495 0 01-.163.382.528.528 0 01-.763.003.557.557 0 01-.166-.377V4.39A.536.536 0 0155.97 4a.52.52 0 01.384-.154h2.372zm-.088 3.277a1.085 1.085 0 00.798-.328c.208-.208.328-.488.335-.781a1.136 1.136 0 00-.339-.774 1.08 1.08 0 00-.798-.304h-1.734v2.187h1.738zM68.052 6.503a.542.542 0 01-.406.045.46.46 0 01-.309-.241c-.546-.907-1.33-1.36-2.35-1.36a2.768 2.768 0 00-1.931.802 2.745 2.745 0 00-.813 1.92 2.546 2.546 0 00.81 1.904 2.69 2.69 0 001.935.774c.448.002.889-.11 1.282-.323.402-.22.744-.533.996-.915a.442.442 0 01.341-.243.407.407 0 01.383.109.496.496 0 01.27.316.413.413 0 01-.077.403c-.343.54-.816.986-1.377 1.297a3.66 3.66 0 01-1.826.468 3.752 3.752 0 01-2.711-1.111 3.602 3.602 0 01-1.146-2.68 3.663 3.663 0 011.149-2.721 3.853 3.853 0 014.613-.61 3.465 3.465 0 011.364 1.382.582.582 0 01.077.468.491.491 0 01-.274.316zM69.616 11.447a.52.52 0 01-.388-.153.538.538 0 01-.163-.392v-6.51a.474.474 0 01.163-.381.504.504 0 01.384-.165.528.528 0 01.382.165.476.476 0 01.164.38v2.69c1.24 0 1.863.004 1.87.012.57.049 1.103.304 1.497.718.385.393.597.922.59 1.47a2.19 2.19 0 01-.629 1.51c-.397.403-.935.639-1.502.657l-2.368-.001zm.54-3.278v2.188h1.739a1.085 1.085 0 00.798-.304c.209-.205.33-.482.34-.773a1.147 1.147 0 00-.34-.784 1.081 1.081 0 00-.798-.327h-1.739zm4.297-3.82a.537.537 0 01.54-.539c.147.004.288.06.395.16a.6.6 0 01.153.382v6.572a.517.517 0 01-.153.38.526.526 0 01-.382.165.562.562 0 01-.54-.538l-.013-6.583zM84.2 3.825a.597.597 0 01.382.153.6.6 0 01.154.396.592.592 0 01-.154.38.595.595 0 01-.382.153h-1.662v6.017a.512.512 0 01-.154.38.52.52 0 01-.382.165.561.561 0 01-.54-.538V4.903h-1.658a.52.52 0 01-.382-.152.521.521 0 01-.122-.59.539.539 0 01.504-.332l4.396-.004zM88.102 8.53l-2.22 2.72a.54.54 0 01-.425.208.523.523 0 01-.328-.12.513.513 0 01-.208-.348.502.502 0 01.11-.404l2.382-2.94-2.36-2.917a.501.501 0 01-.11-.404.538.538 0 01.961-.26l2.198 2.7 2.155-2.7a.564.564 0 01.36-.208.542.542 0 01.602.468.499.499 0 01-.11.404l-2.318 2.918-.689.882zM94.684 3.846a2.117 2.117 0 011.508.662 2.065 2.065 0 01.623 1.503 2.055 2.055 0 01-.59 1.47 2.349 2.349 0 01-1.497.719c-.008.006-.631.01-1.87.01v2.69a.497.497 0 01-.164.382.526.526 0 01-.383.164.564.564 0 01-.54-.538V4.39A.537.537 0 0191.936 4a.518.518 0 01.382-.154h2.366zm-.087 3.277a1.084 1.084 0 00.797-.328c.21-.208.332-.489.34-.784a1.13 1.13 0 00-.34-.774 1.081 1.081 0 00-.797-.304H92.86v2.19h1.738zM101.513 10.357a.598.598 0 01.383.154.543.543 0 01.123.6.495.495 0 01-.123.172.531.531 0 01-.383.164h-3.812a.564.564 0 01-.54-.538V4.39A.537.537 0 0197.326 4a.516.516 0 01.382-.154h3.805a.598.598 0 01.383.154.543.543 0 01.163.391.49.49 0 01-.159.386.532.532 0 01-.387.16h-3.269v2.186h2.493a.598.598 0 01.382.154.544.544 0 01.124.6.51.51 0 01-.124.172.52.52 0 01-.382.164h-2.489v2.144h3.265zM108.284 11.458h-5.015a.508.508 0 01-.382-.164.518.518 0 01-.163-.381v-6.51a.483.483 0 01.163-.382.508.508 0 01.382-.164.529.529 0 01.384.164.477.477 0 01.157.381v5.966h3.377V4.402a.483.483 0 01.163-.38.511.511 0 01.384-.165.528.528 0 01.382.164.478.478 0 01.164.381v5.966h.558a.61.61 0 01.393.153c.095.105.15.24.154.381v1.785a.52.52 0 01-.154.381.561.561 0 01-.607.122.544.544 0 01-.179-.122.484.484 0 01-.124-.172.482.482 0 01-.041-.209l.004-1.23zM111.695 8.147l-.676.708v2.09a.503.503 0 01-.154.381.547.547 0 01-.601.121.52.52 0 01-.174-.121.5.5 0 01-.154-.38V4.353a.6.6 0 01.153-.384.597.597 0 01.382-.152.616.616 0 01.393.152.607.607 0 01.154.393V7.31l3.027-3.228a.527.527 0 01.35-.206.504.504 0 01.405.109.515.515 0 01.208.348.497.497 0 01-.109.404l-2.444 2.628 2.482 3.244a.5.5 0 01.135.392.56.56 0 01-.218.369.54.54 0 01-.753-.077l-2.406-3.145zM119.119 11.447a3.612 3.612 0 01-2.679-1.133 3.746 3.746 0 01-1.105-2.7 3.67 3.67 0 011.105-2.656 3.775 3.775 0 012.678-1.112 3.788 3.788 0 012.678 1.112 3.67 3.67 0 011.105 2.657 3.717 3.717 0 01-1.105 2.7 3.59 3.59 0 01-2.677 1.132zm0-6.544c-.722 0-1.414.286-1.925.795a2.704 2.704 0 00-.798 1.916 2.673 2.673 0 00.798 1.971 2.7 2.7 0 001.924.802 2.71 2.71 0 001.925-.802 2.762 2.762 0 00.81-1.97 2.625 2.625 0 00-.81-1.917 2.633 2.633 0 00-1.924-.795zM124.595 4.947v5.966a.534.534 0 01-.163.391.598.598 0 01-.382.154.527.527 0 01-.505-.333.534.534 0 01-.041-.212v-6.51a.483.483 0 01.163-.382.511.511 0 01.384-.164h3.804a.528.528 0 01.382.164.476.476 0 01.158.381.53.53 0 01-.165.393.597.597 0 01-.375.152h-3.26zM132.456 11.447a3.612 3.612 0 01-2.679-1.133 3.747 3.747 0 01-1.104-2.7 3.68 3.68 0 011.104-2.657 3.775 3.775 0 012.679-1.11 3.788 3.788 0 012.678 1.11 3.685 3.685 0 011.105 2.657 3.718 3.718 0 01-1.105 2.7 3.604 3.604 0 01-2.678 1.133zm0-6.544a2.73 2.73 0 00-1.924.795 2.707 2.707 0 00-.798 1.916 2.673 2.673 0 00.798 1.971 2.71 2.71 0 003.849 0 2.762 2.762 0 00.81-1.97 2.608 2.608 0 00-.81-1.917 2.632 2.632 0 00-1.925-.795zM144.68 3.87a.543.543 0 01.393.162.517.517 0 01.163.38v6.512a.496.496 0 01-.163.38.556.556 0 01-.89-.172.496.496 0 01-.04-.208v-2.69h-1.116l-1.814 2.959a.537.537 0 01-.47.269.484.484 0 01-.284-.077.543.543 0 01-.252-.348.49.49 0 01.066-.403l1.531-2.484a2.49 2.49 0 01-1.17-.827 2.06 2.06 0 01-.269-2.132c.116-.264.285-.502.496-.699a2.092 2.092 0 011.498-.62l2.321-.003zm-.541 3.276V4.958h-1.738a1.085 1.085 0 00-.799.305c-.208.204-.33.481-.339.772a1.148 1.148 0 00.704 1.03c.138.057.285.084.434.081h1.738zM147.037 9.41c.02.146.071.286.148.411.076.125.178.234.299.319.255.189.568.284.886.268.322.01.635-.103.875-.316a.984.984 0 00.349-.762 1.093 1.093 0 00-.349-.794 1.188 1.188 0 00-.875-.348.682.682 0 01-.448-.154.485.485 0 01-.164-.38.534.534 0 01.164-.392.682.682 0 01.448-.153 1.191 1.191 0 001.134-.706c.06-.138.09-.288.09-.44a.997.997 0 00-.349-.762 1.26 1.26 0 00-.875-.316 1.594 1.594 0 00-.863.262 1.016 1.016 0 00-.47.599.675.675 0 01-.241.36.47.47 0 01-.437.087c-.371-.067-.557-.27-.558-.611a2.039 2.039 0 01.929-1.274 2.87 2.87 0 011.644-.472 2.639 2.639 0 011.728.61 1.917 1.917 0 01.743 1.525 2.001 2.001 0 01-.874 1.687 2.012 2.012 0 01.874 1.676c0 .575-.248 1.075-.743 1.502a2.558 2.558 0 01-1.728.643 2.83 2.83 0 01-1.717-.538 2.158 2.158 0 01-.852-1.361c0-.34.186-.548.558-.62a.8.8 0 01.459.14.42.42 0 01.215.31zM152.035 11.447a.513.513 0 01-.382-.153.53.53 0 01-.164-.392v-6.51a.483.483 0 01.164-.381.498.498 0 01.382-.165.529.529 0 01.384.165.49.49 0 01.163.38v2.69c1.239 0 1.862.004 1.87.012a2.35 2.35 0 011.5.717c.385.392.597.921.591 1.47a2.195 2.195 0 01-.63 1.509 2.21 2.21 0 01-1.502.658h-2.376zm.54-3.278v2.188h1.739a1.08 1.08 0 00.798-.304c.209-.204.33-.482.338-.773a1.143 1.143 0 00-.338-.784 1.08 1.08 0 00-.798-.327h-1.739zm4.297-3.82a.538.538 0 01.541-.539.605.605 0 01.383.152c.095.106.149.241.153.382v6.58a.52.52 0 01-.153.38.525.525 0 01-.383.165.562.562 0 01-.541-.538V4.348zM160.444 8.147l-.676.708v2.09a.518.518 0 01-.152.381.54.54 0 01-.777 0 .517.517 0 01-.153-.38V4.353a.613.613 0 01.153-.393.604.604 0 01.384-.152.616.616 0 01.39.161c.096.11.15.248.153.393V7.31l3.028-3.228a.527.527 0 01.35-.206.5.5 0 01.405.109.512.512 0 01.208.348.507.507 0 01-.109.404l-2.449 2.624 2.483 3.244a.502.502 0 01.135.392.571.571 0 01-.208.37.543.543 0 01-.755-.076l-2.41-3.143zM168.163 9.944h-2.668l-.46 1.11c-.051.261-.225.393-.524.393h-.121a.601.601 0 01-.338-.316c-.073-.08-.092-.214-.055-.404l2.339-6.488a.512.512 0 01.541-.393.492.492 0 01.513.393l2.219 6.488a.542.542 0 010 .404.611.611 0 01-.328.316.668.668 0 01-.405-.055.712.712 0 01-.318-.338l-.395-1.11zm-.323-1.1l-.962-2.787-.985 2.787h1.947z" /><path d="M53.588 15.484c.81-1.821 3.562-1.749 4.332.07 2.413 5.097 4.24 10.458 6.544 15.605 1.439.286 3.943.37 3.765 2.455.27 1.519-1.23 2.825-2.702 2.595-6.484.039-12.976.109-19.464.008-1.892.21-3.22-1.775-2.62-3.479.69-1.417 2.402-1.223 3.686-1.573 2.281-5.17 4.048-10.568 6.46-15.68zm-1.11 15.92c2.202-.009 4.403-.009 6.604 0-1.065-2.812-2.139-5.621-3.22-8.428-1.301 2.733-2.336 5.585-3.384 8.428zM69.769 16.169c.045-1.238 1.094-2.19 2.255-2.142a2.211 2.211 0 011.418.631c.38.375.61.874.65 1.405l-.036 12.241a600.84 600.84 0 0010.842-12.97c.237-.323.543-.591.897-.782.717-.386 1.75-.51 2.398-.065.778.538.83 1.697.845 2.22.075 2.393.09 8.987-.024 17.856-.384 1.19-1.533 1.938-2.702 1.808a2.572 2.572 0 01-1.364-.614 2.554 2.554 0 01-.787-1.269c-.05-3.549-.097-7.098-.145-10.647l-6.007 6.397a216.508 216.508 0 01-4.215 4.65c-.262.282-.991 1.034-1.982 1.21-.23.042-.972.174-1.518-.24a1.556 1.556 0 01-.16-.128c-.43-.404-.46-.989-.473-1.227-.04-.712-.01-8.148.108-18.334zM96.74 16.653c.7-1.804 2.52-3.477 4.592-2.78 2.297 1.014 2.837 3.687 3.726 5.784 1.595 4.687 3.782 9.188 5.033 13.99.505 1.892-1.756 3.2-3.377 2.51-1.494-.952-1.68-2.85-2.311-4.353-2.715-.008-5.422 0-8.13-.022-.505 1.247-.886 2.572-1.62 3.71-1.035 1.278-3.353 1.123-4.1-.38-.242-2.17.793-4.183 1.5-6.166 1.626-4.08 2.976-8.256 4.687-12.293zm.832 10.59c1.813 0 3.628-.003 5.445-.008-.946-2.711-1.781-5.454-2.621-8.197-1.02 2.705-1.898 5.455-2.824 8.205zM117.625 17.636c.355-1.049 1.232-3.64 2.814-3.843.279-.031.562.002.826.097 1.792.578 2.518 3.058 2.648 3.523l6.456 16.222a2.403 2.403 0 01-1.502 2.676 2.417 2.417 0 01-2.917-.98l-5.025-12.376-4.323 11.544c-.344 1.12-1.215 1.926-2.235 2.046-.194.023-1.39.134-2.041-.774-.591-.828-.242-1.813-.207-1.91 2.434-7.308 4.389-12.956 5.506-16.225zM138.11 14.616c3.975-1.434 8.938-.976 12.058 2.068 3.695 3.65 3.959 9.686 2.07 14.26-3.243 7.491-15.535 7.677-19.2.473-2.862-5.677-1.471-14.352 5.072-16.8zm1.603 4.555c-3.19 2.317-3.478 7.13-1.728 10.412 1.649 3.185 6.738 3.44 8.729.489 1.844-2.743 1.844-6.578.155-9.398-1.401-2.378-4.901-2.96-7.156-1.503zM156.787 14.693l11.334-.134c1.136.333 1.898 1.345 1.879 2.383-.023 1.285-1.216 2.44-2.724 2.39l-7.486.013-.093 15.066a2.415 2.415 0 01-.794 1.532 2.435 2.435 0 01-4.037-1.517l-.124-15.5c-.035-.19-.421-2.528 1.06-3.719a2.81 2.81 0 01.985-.514z" /><path d="M25.977 14.98c3.877 0 7.019-3.13 7.019-6.99 0-3.86-3.143-6.99-7.019-6.99-3.876 0-7.019 3.13-7.019 6.99 0 3.86 3.143 6.99 7.02 6.99z"  stroke-width=".83" stroke-miterlimit="10"/><path d="M29.443 10.118a5.292 5.292 0 01-6.754.121"  stroke-width=".83" stroke-miterlimit="10" stroke-linecap="round"/><path d="M23.671 6.41a.283.283 0 01-.285.28.283.283 0 01-.285-.28c0-.154.126-.282.285-.282.16 0 .285.128.285.281zM29.185 6.41a.283.283 0 01-.285.28.283.283 0 01-.285-.28c0-.154.126-.282.285-.282.16 0 .285.128.285.281z"  /><path d="M10.692 18.313c3.877 0 7.02-3.13 7.02-6.99 0-3.86-3.143-6.99-7.02-6.99-3.876 0-7.019 3.13-7.019 6.99 0 3.86 3.143 6.99 7.02 6.99z"  stroke-width=".83" stroke-miterlimit="10"/><path d="M14.16 13.453a5.295 5.295 0 01-6.754.12"  stroke-width=".83" stroke-miterlimit="10" stroke-linecap="round"/><path d="M8.386 9.743a.283.283 0 01-.285.281.283.283 0 01-.284-.281c0-.154.125-.282.284-.282.16 0 .285.128.285.282zM13.9 9.743a.283.283 0 01-.284.281.283.283 0 01-.285-.281c0-.154.125-.282.285-.282.159 0 .284.128.284.282z"  /><path d="M35.67 27.23c0-5.539-4.749-10.257-5.562-11.324-1.08 1.336-3.176 1.615-4.13 1.666-.956-.055-3.051-.33-4.13-1.665-.811 1.066-5.563 5.784-5.563 11.324 0 4.026 2.381 8.406 9.195 8.793v.031c.17 0 .334 0 .497-.01.163-.009.328.01.497.01v-.03c6.822-.388 9.197-4.768 9.197-8.794z" /><path d="M35.67 27.279c0-1.824-.317-2.97-1.037-4.516-1.467-3.146-16.075-2.845-17.542.075-.832 1.655-.81 2.437-.81 4.44 0 4.026 2.381 8.405 9.195 8.793v.031c.17 0 .334 0 .497-.009.163-.01.328.01.497.01v-.032c6.826-.387 9.2-4.766 9.2-8.792z" /><path d="M16.336 28.308c1.004 3.265 2.909 7.41 9.144 7.765v.03c.17 0 .334 0 .497-.009.163-.01.328.01.497.01v-.031c6.233-.355 9.093-5.056 9.144-7.17-2.088-2.583-14.599-2.583-19.282-.595z" /><path opacity=".33" d="M26.06 33.686c-4.146-.414-7.21-3.71-6.841-7.36-.776-.134-1.101.473-1.506.605-.37 3.65 2.701 6.945 6.842 7.36a8.216 8.216 0 004.657-.882 8.398 8.398 0 01-3.151.277z" /><path d="M35.67 27.23c0-5.539-4.749-10.257-5.562-11.324-1.08 1.336-3.176 1.615-4.13 1.666-.956-.055-3.051-.33-4.13-1.665-.811 1.066-5.563 5.784-5.563 11.324 0 4.026 2.381 8.406 9.195 8.793v.031c.17 0 .334 0 .497-.01.163-.009.328.01.497.01v-.03c6.822-.388 9.197-4.768 9.197-8.794z"  stroke-width=".83" stroke-linejoin="round"/><path d="M20.386 30.177c0-5.54-4.75-10.258-5.563-11.325-1.08 1.336-3.176 1.615-4.13 1.665-.956-.054-3.05-.329-4.13-1.665C5.753 19.92 1 24.637 1 30.177c0 4.025 2.382 8.405 9.197 8.792V39c.168 0 .332 0 .495-.01.164-.009.329.01.497.01v-.031c6.815-.387 9.197-4.767 9.197-8.792z"   stroke-width=".83" stroke-linejoin="round"/><path fill-rule="evenodd" clip-rule="evenodd" d="M10.999 28.314l.623.826.98-.334-.597.845.623.826-.992-.304-.596.844-.015-1.033-.992-.304.982-.333L11 28.313z" /><path d="M10.114 33.478a3.766 3.766 0 01-2.657-1.096 3.734 3.734 0 010-5.293 3.766 3.766 0 013.858-.897 4.412 4.412 0 00-4.72-.011 4.386 4.386 0 00-1.627 1.834 4.364 4.364 0 00.592 4.663 4.416 4.416 0 006.603.192 3.76 3.76 0 01-2.049.608z" /></svg><svg  viewBox="0 0 16 16" id="phone" xmlns="http://www.w3.org/2000/svg"><rect width="16" height="16" rx="8" /><path d="M12.022 10.45l-1.3-1.303a.677.677 0 00-.957.018l-.655.656a19.224 19.224 0 01-.13-.072c-.413-.23-.98-.545-1.575-1.142-.598-.6-.912-1.168-1.142-1.583l-.07-.126.439-.44.216-.217a.68.68 0 00.018-.959L5.565 3.98a.676.676 0 00-.956.018l-.367.37.01.01a2.126 2.126 0 00-.302.533c-.07.186-.114.364-.134.542-.172 1.426.479 2.73 2.244 4.5 2.44 2.446 4.408 2.261 4.492 2.252a2.195 2.195 0 001.073-.438l.008.007.371-.364a.681.681 0 00.018-.959z" /></svg><svg  viewBox="-10 -10 100 100" id="play" xmlns="http://www.w3.org/2000/svg"><path d="M40 0C17.937 0 0 17.937 0 40s17.937 40 40 40 40-17.937 40-40S62.063 0 40 0zm12.884 42.021L34.021 54.568c-1.6 1.095-3.79-.084-3.79-2.02V27.452c0-1.937 2.19-3.116 3.79-2.021l18.863 12.547c1.432.926 1.432 3.116 0 4.042z" /></svg><svg  viewBox="0 0 17 16" id="program-play" xmlns="http://www.w3.org/2000/svg"><g clip-path="url(#mclip0_2136_27)"><path d="M8.25 0a8 8 0 100 16 8 8 0 000-16zM5.934 4.21L12.25 8l-6.316 3.79V4.21z" /></g><defs><clipPath id="mclip0_2136_27"><path  transform="translate(.25)" d="M0 0h16v16H0z"/></clipPath></defs></svg><svg  viewBox="0 0 9 14" id="slider-arrow-left" xmlns="http://www.w3.org/2000/svg"><path d="M2.507 6.973c.096.111.144.173.192.223 1.444 1.497 2.877 2.995 4.322 4.48.239.247.49.483.716.742.43.483.31 1.201-.238 1.486-.335.173-.729.111-1.015-.174-.263-.26-.514-.52-.765-.78-1.6-1.658-3.212-3.316-4.812-4.975C.61 7.666.31 7.345 0 6.998c.036-.05.096-.124.155-.186C2.233 4.659 4.322 2.505 6.4.339c.358-.371.764-.396 1.05-.272.574.247.741 1.002.311 1.485-.274.31-.561.582-.836.879-1.397 1.46-2.794 2.896-4.179 4.344-.071.062-.143.111-.239.198z" /></svg><svg  viewBox="0 0 9 14" id="slider-arrow-right" xmlns="http://www.w3.org/2000/svg"><path d="M5.496 7.027c-.096-.111-.144-.173-.191-.223C3.86 5.307 2.427 3.81.982 2.324c-.239-.247-.49-.483-.716-.742C-.164 1.099-.044.38.505.096c.334-.173.728-.111 1.014.174.263.26.514.52.765.78 1.6 1.658 3.212 3.316 4.812 4.975.298.309.597.63.907.977-.036.05-.095.124-.155.186-2.078 2.153-4.167 4.307-6.245 6.473-.358.371-.764.396-1.05.272-.574-.248-.741-1.002-.311-1.485.274-.31.561-.582.836-.879 1.397-1.46 2.794-2.896 4.179-4.344.071-.062.143-.111.239-.198z" /></svg><svg  viewBox="0 0 16 16" id="vk" xmlns="http://www.w3.org/2000/svg"><g clip-path="url(#pclip0_2118_698)" ><path d="M13.54 9.181c.51.498 1.048.966 1.505 1.513a4.4 4.4 0 01.539.777c.207.402.02.844-.34.868l-2.239-.002c-.577.048-1.037-.184-1.425-.579-.31-.315-.596-.651-.894-.977a2.114 2.114 0 00-.403-.358c-.305-.199-.57-.138-.745.18-.178.325-.218.684-.236 1.045-.024.527-.183.665-.712.69-1.132.053-2.205-.118-3.203-.689-.88-.503-1.561-1.213-2.155-2.017C2.077 8.066 1.192 6.345.397 4.577c-.18-.399-.048-.613.391-.62.73-.014 1.46-.013 2.191-.001.297.004.493.174.608.455.395.97.878 1.895 1.485 2.751.162.228.326.456.56.617.26.178.458.119.58-.17a1.91 1.91 0 00.129-.577c.058-.676.065-1.35-.036-2.023-.062-.42-.299-.692-.718-.772-.214-.04-.182-.12-.079-.242.18-.21.35-.342.687-.342h2.529c.398.079.487.258.541.658l.002 2.81c-.004.155.078.615.357.718.224.073.371-.106.505-.248.606-.642 1.038-1.402 1.424-2.188.171-.346.319-.705.461-1.064.106-.267.272-.398.572-.392l2.434.002c.073 0 .146.001.216.013.41.07.522.247.396.647-.2.629-.588 1.152-.968 1.679-.406.561-.84 1.104-1.243 1.669-.37.516-.34.776.12 1.224z"/><path d="M8.21 12.665c-1.135 0-2.113-.243-2.981-.74-.826-.472-1.542-1.14-2.253-2.104-1.01-1.369-1.895-2.946-2.87-5.114-.136-.303-.141-.559-.014-.759.127-.2.36-.304.69-.31a60.57 60.57 0 012.202 0c.41.005.728.237.898.652a13.175 13.175 0 001.45 2.688c.141.2.287.406.48.538h.002a.07.07 0 00.104-.03v-.001c.054-.127.088-.28.105-.482.065-.75.054-1.368-.033-1.947-.044-.298-.187-.453-.463-.506-.078-.014-.316-.06-.396-.286-.08-.223.076-.406.134-.475.202-.236.454-.454.93-.454h2.529c.02 0 .04.001.059.005.637.125.743.527.798.929a.321.321 0 01.003.042l.002 2.81v.009a.735.735 0 00.038.218.146.146 0 00.246.053l.028-.029c.613-.65 1.036-1.432 1.369-2.11.174-.351.324-.721.452-1.041.158-.4.45-.6.87-.592l2.432.002c.084 0 .174.001.268.017.195.033.47.106.619.35.148.243.087.52.027.707-.207.654-.595 1.19-.97 1.71l-.043.06c-.192.265-.392.53-.586.785-.218.288-.444.585-.655.882-.142.197-.203.33-.194.42.009.092.097.216.276.39v.001c.133.13.271.26.405.388.38.36.773.732 1.121 1.15.192.23.41.51.578.834.16.312.163.664.006.942a.749.749 0 01-.63.39h-2.225c-.62.047-1.18-.18-1.665-.675a19.36 19.36 0 01-.618-.67 40.38 40.38 0 00-.285-.316 1.843 1.843 0 00-.34-.306c-.073-.047-.138-.07-.175-.06-.035.008-.079.056-.118.127-.139.254-.18.546-.197.906-.03.682-.316.961-1.016.993-.133.006-.265.01-.394.01zM.64 4.295a.542.542 0 00.048.151c.956 2.125 1.82 3.666 2.802 4.996.657.89 1.31 1.503 2.056 1.93.858.491 1.849.703 3.03.647.245-.011.319-.048.34-.069.018-.016.058-.079.069-.317.019-.389.065-.8.274-1.183.162-.295.373-.401.521-.439.15-.037.389-.043.678.144.192.126.342.278.464.41.098.107.195.217.29.322.193.216.393.44.597.648.36.367.733.521 1.171.485a.287.287 0 01.026-.001h2.225c.02-.002.057-.011.088-.066.038-.066.056-.194-.018-.336a4.147 4.147 0 00-.5-.72c-.324-.387-.687-.73-1.07-1.094a38.02 38.02 0 01-.412-.394c-.578-.563-.619-.992-.156-1.638.217-.304.445-.605.666-.896.192-.253.39-.514.578-.774l.043-.06c.36-.5.702-.972.879-1.528a.506.506 0 00.034-.183.515.515 0 00-.18-.054 1.038 1.038 0 00-.162-.008l-2.434-.002h-.006c-.143-.003-.203.024-.27.19a14.66 14.66 0 01-.471 1.088c-.354.72-.806 1.553-1.478 2.266l-.025.027c-.143.152-.409.436-.811.305a.488.488 0 01-.01-.004c-.442-.162-.572-.754-.567-1.02l-.002-2.785c-.014-.099-.037-.226-.077-.28-.01-.013-.038-.05-.178-.081H6.195a.499.499 0 00-.24.048c.366.166.598.491.665.942.095.629.107 1.295.039 2.097-.025.27-.073.484-.153.674-.125.294-.31.403-.443.442-.133.039-.347.047-.61-.133-.288-.197-.484-.473-.641-.695a13.802 13.802 0 01-1.52-2.816c-.091-.223-.212-.255-.317-.257a59.946 59.946 0 00-2.18.001.547.547 0 00-.156.02z"/><path d="M2.04 5.764a.319.319 0 01-.284-.175 34.566 34.566 0 01-.142-.284.319.319 0 11.571-.282l.14.278a.319.319 0 01-.285.463zM4.067 9.116a.318.318 0 01-.256-.13 21.782 21.782 0 01-1.54-2.421.319.319 0 01.558-.309c.483.874.972 1.643 1.495 2.352a.319.319 0 01-.257.508z"/></g><defs><clipPath id="pclip0_2118_698"><path  d="M0 0h16v16H0z"/></clipPath></defs></svg><svg  viewBox="0 0 16 16" id="whatsapp" xmlns="http://www.w3.org/2000/svg"><path d="M8.002 0h-.004C3.587 0 0 3.588 0 8a7.94 7.94 0 001.523 4.689l-.997 2.972 3.075-.983A7.93 7.93 0 008.002 16C12.413 16 16 12.411 16 8s-3.587-8-7.998-8z" /><path d="M12.657 11.297c-.193.545-.959.997-1.57 1.129-.418.089-.964.16-2.802-.602-2.351-.974-3.865-3.363-3.983-3.518-.113-.155-.95-1.265-.95-2.413s.583-1.707.818-1.947c.193-.197.512-.287.818-.287.099 0 .188.005.268.009.235.01.353.024.508.395.193.465.663 1.613.72 1.731.056.118.113.278.033.433-.075.16-.141.231-.259.367-.118.136-.23.24-.348.386-.108.127-.23.263-.094.498.136.23.606.997 1.298 1.613.893.795 1.617 1.049 1.876 1.157.193.08.423.061.564-.089.18-.193.4-.513.625-.828.16-.226.362-.254.574-.174.216.075 1.36.64 1.594.757.235.118.39.174.447.273.056.099.056.564-.137 1.11z" /></svg><svg  viewBox="0 0 17 17" id="x" xmlns="http://www.w3.org/2000/svg"><path d="M16.012 13.147a979.516 979.516 0 00-5.115-5.14l5.14-5.14c1.527-1.527-.84-3.894-2.366-2.367l-5.14 5.14C6.826 3.935 5.12 2.23 3.39.525 1.864-1-.503 1.365 1.024 2.892a976.4 976.4 0 015.14 5.115 976.034 976.034 0 00-5.115 5.14c-1.526 1.527.84 3.893 2.367 2.367 1.705-1.73 3.41-3.436 5.115-5.14l5.14 5.14c1.501 1.5 3.868-.866 2.341-2.367z" /></svg><svg  viewBox="0 0 16 16" id="youtube" xmlns="http://www.w3.org/2000/svg"><path d="M15.183 4.25a1.88 1.88 0 00-1.322-1.321c-1.174-.322-5.869-.322-5.869-.322s-4.695 0-5.869.31c-.63.172-1.15.691-1.322 1.334C.492 5.424.492 7.859.492 7.859s0 2.446.31 3.607a1.88 1.88 0 001.321 1.323c1.186.32 5.87.32 5.87.32s4.694 0 5.868-.308a1.88 1.88 0 001.322-1.322c.31-1.174.31-3.608.31-3.608s.011-2.447-.31-3.62zm-8.686 5.857V5.61l3.905 2.249-3.905 2.248z" /></svg></svg>